<svg width="17" height="17" viewBox="0 0 17 17" fill="none" xmlns="http://www.w3.org/2000/svg">
<g clip-path="url(#clip0_200_1867)">
<path d="M3.48602 4.86388L5.12238 2.68206H11.6678L13.3042 4.86388M3.48602 4.86388V12.5002C3.48602 12.7896 3.60095 13.067 3.80554 13.2716C4.01012 13.4762 4.2876 13.5912 4.57693 13.5912H12.2133C12.5026 13.5912 12.7801 13.4762 12.9847 13.2716C13.1893 13.067 13.3042 12.7896 13.3042 12.5002V4.86388M3.48602 4.86388H13.3042M4.57693 -7.13648C4.57693 -6.55782 5.43797 -10.0029 5.0288 -9.5937C4.61963 -9.18453 4.06467 -8.95466 3.48602 -8.95466C2.90736 -8.95466 2.35241 -9.18453 1.94324 -9.5937C1.53407 -10.0029 1.3042 -10.5578 1.3042 -11.1365" stroke="#2D5D7C" stroke-width="1.5" stroke-linecap="round" stroke-linejoin="round"/>
<path d="M8.4575 6.3186C8.69976 6.3186 8.89637 6.51522 8.89637 6.75747V8.42519H10.5641C10.6805 8.42519 10.7921 8.47142 10.8744 8.55373C10.9567 8.63603 11.003 8.74766 11.003 8.86406C11.003 8.98045 10.9567 9.09208 10.8744 9.17439C10.7921 9.25669 10.6805 9.30293 10.5641 9.30293H8.89637V10.9706C8.89637 11.087 8.85014 11.1987 8.76783 11.281C8.68553 11.3633 8.5739 11.4095 8.4575 11.4095C8.34111 11.4095 8.22948 11.3633 8.14717 11.281C8.06487 11.1987 8.01863 11.087 8.01863 10.9706V9.30293H6.35092C6.23452 9.30293 6.1229 9.25669 6.04059 9.17439C5.95829 9.09208 5.91205 8.98045 5.91205 8.86406C5.91205 8.74766 5.95829 8.63603 6.04059 8.55373C6.1229 8.47142 6.23452 8.42519 6.35092 8.42519H8.01863V6.75747C8.01863 6.51522 8.21525 6.3186 8.4575 6.3186Z" fill="#2D5D7C"/>
</g>
<defs>
<clipPath id="clip0_200_1867">
<rect width="16" height="16" fill="white" transform="translate(0.576904 0.5)"/>
</clipPath>
</defs>
</svg>
