<svg width="16" height="16" viewBox="0 0 16 16" fill="none" xmlns="http://www.w3.org/2000/svg">
<path d="M12.4445 11.1112V12.4446H3.55558V11.1112H12.4445ZM12.4445 4.44455C11.7778 4.44455 11.2614 5.19344 11.7342 5.86411C11.972 6.20144 11.9147 6.40455 11.7542 6.64144C11.4142 7.14233 10.9222 7.55566 10.2222 7.55566C9.1018 7.55566 8.50935 6.62989 8.38624 5.84544C8.34358 5.57255 8.31958 5.36811 8.58002 5.11478C8.75869 4.94144 8.88891 4.713 8.88891 4.44455C8.88891 3.95389 8.49069 3.55566 8.00002 3.55566C7.50935 3.55566 7.11113 3.95389 7.11113 4.44455C7.11113 4.713 7.24135 4.94144 7.42002 5.11478C7.68046 5.36811 7.65602 5.57255 7.6138 5.84544C7.49069 6.62989 6.89824 7.55566 5.7778 7.55566C5.0778 7.55566 4.5858 7.14233 4.2458 6.641C4.08491 6.40455 4.02758 6.20144 4.2658 5.86411C4.73869 5.19344 4.22224 4.44455 3.55558 4.44455C3.06491 4.44455 2.66669 4.84278 2.66669 5.33344C2.66669 5.68766 2.87291 5.99789 3.17513 6.137C3.5418 6.30589 3.55558 6.72233 3.55558 7.10189V10.2223H12.4445V7.10189C12.4445 6.72233 12.4582 6.30544 12.8249 6.137C13.1271 5.99789 13.3334 5.68766 13.3334 5.33344C13.3334 4.84278 12.9351 4.44455 12.4445 4.44455Z" fill="white"/>
</svg>
