<svg width="19" height="18" viewBox="0 0 19 18" fill="none" xmlns="http://www.w3.org/2000/svg">
<path d="M9.38595 1.86042C11.7114 1.86042 11.9868 1.86913 12.9055 1.91102C13.4578 1.91777 14.0049 2.0192 14.523 2.21088C14.8987 2.35577 15.2399 2.57772 15.5246 2.86244C15.8093 3.14717 16.0313 3.48836 16.1762 3.86406C16.3679 4.38212 16.4693 4.92922 16.476 5.48157C16.5175 6.40023 16.5266 6.67562 16.5266 9.00111C16.5266 11.3266 16.5179 11.602 16.476 12.5206C16.4693 13.073 16.3679 13.6201 16.1762 14.1382C16.0313 14.5139 15.8093 14.855 15.5246 15.1398C15.2399 15.4245 14.8987 15.6464 14.523 15.7913C14.0049 15.983 13.4578 16.0844 12.9055 16.0912C11.9872 16.1327 11.7118 16.1418 9.38595 16.1418C7.06005 16.1418 6.78466 16.1331 5.86641 16.0912C5.31406 16.0844 4.76696 15.983 4.2489 15.7913C3.8732 15.6464 3.53201 15.4245 3.24728 15.1398C2.96256 14.855 2.7406 14.5139 2.59572 14.1382C2.40404 13.6201 2.30261 13.073 2.29585 12.5206C2.25438 11.602 2.24526 11.3266 2.24526 9.00111C2.24526 6.67562 2.25397 6.40023 2.29585 5.48157C2.30261 4.92922 2.40404 4.38212 2.59572 3.86406C2.7406 3.48836 2.96256 3.14717 3.24728 2.86244C3.53201 2.57772 3.8732 2.35577 4.2489 2.21088C4.76696 2.0192 5.31406 1.91777 5.86641 1.91102C6.78507 1.86954 7.06046 1.86042 9.38595 1.86042V1.86042ZM9.38595 0.291016C7.02189 0.291016 6.7241 0.30097 5.79507 0.343274C5.07219 0.357652 4.35698 0.494524 3.67986 0.748066C3.09901 0.966914 2.5729 1.30987 2.13825 1.753C1.69472 2.18781 1.35147 2.71421 1.13249 3.29544C0.878948 3.97255 0.742077 4.68776 0.727698 5.41065C0.686223 6.33885 0.67627 6.63664 0.67627 9.00069C0.67627 11.3647 0.686223 11.6625 0.728528 12.5916C0.742906 13.3145 0.879778 14.0297 1.13332 14.7068C1.35206 15.2879 1.69502 15.8143 2.13825 16.2492C2.57314 16.6924 3.09954 17.0354 3.68069 17.2541C4.35781 17.5077 5.07302 17.6446 5.7959 17.6589C6.72493 17.7004 7.02148 17.7112 9.38678 17.7112C11.7521 17.7112 12.0486 17.7012 12.9777 17.6589C13.7005 17.6446 14.4157 17.5077 15.0929 17.2541C15.6713 17.0299 16.1965 16.6875 16.635 16.2487C17.0735 15.8099 17.4156 15.2845 17.6394 14.7059C17.8929 14.0288 18.0298 13.3136 18.0442 12.5907C18.0857 11.6625 18.0956 11.3647 18.0956 9.00069C18.0956 6.63664 18.0857 6.33885 18.0434 5.40982C18.029 4.68693 17.8921 3.97172 17.6386 3.29461C17.4198 2.71346 17.0769 2.18706 16.6336 1.75217C16.1987 1.30894 15.6724 0.965977 15.0912 0.747237C14.4141 0.493694 13.6989 0.356823 12.976 0.342444C12.0478 0.30097 11.75 0.291016 9.38595 0.291016Z" fill="white"/>
<path d="M9.3862 4.53125C8.5016 4.53125 7.63686 4.79357 6.90134 5.28502C6.16582 5.77648 5.59256 6.47501 5.25403 7.29228C4.91551 8.10954 4.82694 9.00884 4.99952 9.87644C5.17209 10.744 5.59807 11.541 6.22358 12.1665C6.84909 12.792 7.64603 13.218 8.51364 13.3906C9.38124 13.5631 10.2805 13.4746 11.0978 13.136C11.9151 12.7975 12.6136 12.2243 13.1051 11.4887C13.5965 10.7532 13.8588 9.88848 13.8588 9.00388C13.8588 7.81766 13.3876 6.68003 12.5488 5.84125C11.71 5.00247 10.5724 4.53125 9.3862 4.53125ZM9.3862 11.9071C8.812 11.9071 8.25069 11.7368 7.77326 11.4178C7.29582 11.0988 6.92371 10.6454 6.70397 10.1149C6.48423 9.5844 6.42674 9.00066 6.53876 8.43749C6.65078 7.87431 6.92729 7.35701 7.33331 6.95099C7.73934 6.54496 8.25664 6.26846 8.81981 6.15644C9.38298 6.04441 9.96672 6.10191 10.4972 6.32165C11.0277 6.54138 11.4811 6.9135 11.8001 7.39093C12.1192 7.86836 12.2894 8.42967 12.2894 9.00388C12.2894 9.77386 11.9836 10.5123 11.4391 11.0568C10.8946 11.6012 10.1562 11.9071 9.3862 11.9071V11.9071Z" fill="white"/>
<path d="M14.0354 5.39501C14.6126 5.39501 15.0806 4.92708 15.0806 4.34985C15.0806 3.77262 14.6126 3.30469 14.0354 3.30469C13.4582 3.30469 12.9902 3.77262 12.9902 4.34985C12.9902 4.92708 13.4582 5.39501 14.0354 5.39501Z" fill="white"/>
</svg>
