<svg width="208" height="156" viewBox="0 0 208 156" fill="none" xmlns="http://www.w3.org/2000/svg">
<path d="M32.2124 140.442C71.861 161.186 136.139 161.186 175.788 140.442C215.436 119.698 215.431 86.0623 175.788 65.318C136.144 44.5738 71.861 44.5738 32.2124 65.318C-7.43618 86.0623 -7.43144 119.707 32.2124 140.442Z" fill="#F5F5F5"/>
<path d="M176.521 124.399C174.305 125.309 171.82 125.309 169.603 124.399C167.71 123.484 167.71 122.029 169.603 121.081C171.819 120.167 174.305 120.167 176.521 121.081C178.433 122.006 178.433 123.499 176.521 124.399Z" fill="#E0E0E0"/>
<path d="M24.7502 121.764C27.0056 122.693 29.5359 122.693 31.7913 121.764C33.7361 120.816 33.7361 119.328 31.7913 118.399C29.5349 117.475 27.0066 117.475 24.7502 118.399C22.8054 119.328 22.8054 120.835 24.7502 121.764Z" fill="#E0E0E0"/>
<path d="M144.122 111.176C145.305 111.328 146.672 110.92 147.264 110.134C147.959 109.209 147.652 107.764 147.988 106.991C148.324 106.219 149.407 106.342 149.914 105.688C150.42 105.034 149.634 103.47 149.914 102.641C150.193 101.811 150.997 101.02 151.362 100.451C151.726 99.8823 151.362 99.0292 150.117 99.4605C148.873 99.8917 148.224 101.385 147.018 101.133C145.811 100.882 144.78 101.607 144.761 102.806C144.795 103.275 144.703 103.745 144.496 104.167C144.268 104.536 143.663 104.745 143.388 105.318L144.122 111.176Z" fill="#FF9900"/>
<path d="M144.122 111.176C145.305 111.328 146.672 110.92 147.264 110.134C147.959 109.209 147.652 107.764 147.988 106.991C148.324 106.219 149.407 106.342 149.914 105.688C150.42 105.034 149.634 103.47 149.914 102.641C150.193 101.811 150.997 101.02 151.362 100.451C151.726 99.8823 151.362 99.0292 150.117 99.4605C148.873 99.8917 148.224 101.385 147.018 101.133C145.811 100.882 144.78 101.607 144.761 102.806C144.795 103.275 144.703 103.745 144.496 104.167C144.268 104.536 143.663 104.745 143.388 105.318L144.122 111.176Z" fill="black"/>
<path d="M36.7266 96.7022L57.8687 84.4746V32.2325L36.7266 44.4601V96.7022Z" fill="#37474F"/>
<path d="M36.7266 44.4601L13.6586 31.1235V83.3608L36.7266 96.7022V44.4601Z" fill="#455A64"/>
<path d="M57.8687 32.2325L34.8055 18.8959L13.6586 31.1235L36.7266 44.4601L57.8687 32.2325Z" fill="#37474F"/>
<path d="M22.2943 88.3656V79.4698L28.2707 82.9106V91.8016L22.2943 88.3656Z" fill="#E0E0E0"/>
<path d="M24.9016 80.9722L25.4836 81.3087V90.1997L24.9016 89.8632V80.9722Z" fill="#263238"/>
<path d="M34.3086 81.958V77.0006L30.3528 74.7115V79.6689L34.3086 81.958Z" fill="#E0E0E0"/>
<path d="M30.3528 79.6689L31.3417 79.1001V75.2849L30.3528 74.7115V79.6689Z" fill="#263238"/>
<path d="M34.3086 80.8158L31.3417 79.1001L30.3528 79.6689L34.3086 81.958V80.8158Z" fill="#37474F"/>
<path d="M34.3086 91.4557V86.4983L30.3528 84.2139V89.1713L34.3086 91.4557Z" fill="#E0E0E0"/>
<path d="M30.3528 89.1713L31.3417 88.5978V84.7826L30.3528 84.2139V89.1713Z" fill="#263238"/>
<path d="M34.3086 90.3135L31.3417 88.5978L30.3528 89.1713L34.3086 91.4557V90.3135Z" fill="#37474F"/>
<path d="M34.3086 72.6593V67.7019L30.3528 65.4176V70.3749L34.3086 72.6593Z" fill="#E0E0E0"/>
<path d="M30.3528 70.3749L31.3417 69.8015V65.9863L30.3528 65.4176V70.3749Z" fill="#263238"/>
<path d="M34.3086 71.5171L31.3417 69.8015L30.3528 70.3749L34.3086 72.6593V71.5171Z" fill="#37474F"/>
<path d="M34.3086 63.3607V58.4033L30.3528 56.1189V61.0763L34.3086 63.3607Z" fill="#E0E0E0"/>
<path d="M30.3528 61.0763L31.3417 60.5028V56.6876L30.3528 56.1189V61.0763Z" fill="#263238"/>
<path d="M34.3086 62.2185L31.3417 60.5028L30.3528 61.0763L34.3086 63.3607V62.2185Z" fill="#37474F"/>
<path d="M34.3086 54.0668V49.1046L30.3528 46.8203V51.7776L34.3086 54.0668Z" fill="#E0E0E0"/>
<path d="M30.3528 51.7776L31.3417 51.2042V47.3937L30.3528 46.8203V51.7776Z" fill="#263238"/>
<path d="M34.3086 52.9198L31.3417 51.2042L30.3528 51.7776L34.3086 54.0668V52.9198Z" fill="#37474F"/>
<path d="M20.0372 73.7067V68.7493L16.0814 66.4602V71.4176L20.0372 73.7067Z" fill="#E0E0E0"/>
<path d="M16.0814 71.4176L17.0703 70.8489V67.0337L16.0814 66.4602V71.4176Z" fill="#263238"/>
<path d="M20.0372 72.5645L17.0703 70.8489L16.0814 71.4176L20.0372 73.7067V72.5645Z" fill="#37474F"/>
<path d="M20.0372 83.2044V78.247L16.0814 75.9627V80.9153L20.0372 83.2044Z" fill="#E0E0E0"/>
<path d="M16.0814 80.9153L17.0703 80.3466V76.5314L16.0814 75.9627V80.9153Z" fill="#263238"/>
<path d="M20.0372 82.0622L17.0703 80.3466L16.0814 80.9153L20.0372 83.2044V82.0622Z" fill="#37474F"/>
<path d="M20.0372 64.3275V59.3701L16.0814 57.0857V62.0431L20.0372 64.3275Z" fill="#E0E0E0"/>
<path d="M16.0814 62.0431L17.0703 61.4697V57.6545L16.0814 57.0857V62.0431Z" fill="#263238"/>
<path d="M20.0372 63.1853L17.0703 61.4697L16.0814 62.0431L20.0372 64.3275V63.1853Z" fill="#37474F"/>
<path d="M20.0372 54.953V49.9956L16.0814 47.7065V52.6639L20.0372 54.953Z" fill="#E0E0E0"/>
<path d="M16.0814 52.6639L17.0703 52.0952V48.28L16.0814 47.7065V52.6639Z" fill="#263238"/>
<path d="M20.0372 53.8108L17.0703 52.0952L16.0814 52.6639L20.0372 54.953V53.8108Z" fill="#37474F"/>
<path d="M20.0372 45.5738V40.6164L16.0814 38.332V43.2894L20.0372 45.5738Z" fill="#FAFAFA"/>
<path d="M16.0814 43.2894L17.0703 42.716V38.9008L16.0814 38.332V43.2894Z" fill="#263238"/>
<path d="M20.0372 44.4316L17.0703 42.716L16.0814 43.2894L20.0372 45.5738V44.4316Z" fill="#37474F"/>
<path d="M22.2943 41.6733L24.5988 43.0051V76.3466L22.2943 75.0195V41.6733Z" fill="#FAFAFA"/>
<path d="M22.2943 41.6733L23.2691 42.2373V74.4698L22.2943 75.0195V41.6733Z" fill="#263238"/>
<path d="M23.2691 74.4698L24.5988 75.2091V76.3466L22.2943 75.0195L23.2691 74.4698Z" fill="#37474F"/>
<path d="M25.9616 43.7728L28.2707 45.0999V78.4461L25.9616 77.1143V43.7728Z" fill="#FAFAFA"/>
<path d="M25.9616 43.7728L26.9363 44.3368V76.5646L25.9616 77.1143V43.7728Z" fill="#263238"/>
<path d="M26.9363 76.5646L28.2707 77.3039V78.4461L25.9616 77.1143L26.9363 76.5646Z" fill="#37474F"/>
<path d="M39.173 81.958V77.0006L43.1241 74.7115V79.6689L39.173 81.958Z" fill="#E0E0E0"/>
<path d="M43.1241 79.6689L42.1352 79.1001L42.1399 75.2849L43.1241 74.7115V79.6689Z" fill="#455A64"/>
<path d="M39.173 80.8158L42.1352 79.1001L43.1241 79.6689L39.173 81.958V80.8158Z" fill="#263238"/>
<path d="M45.3197 78.4177V73.4603L49.2756 71.1759V76.1333L45.3197 78.4177Z" fill="#E0E0E0"/>
<path d="M49.2756 76.1333L48.2866 75.5598V71.7446L49.2756 71.1759V76.1333Z" fill="#455A64"/>
<path d="M45.3197 77.2755L48.2866 75.5598L49.2756 76.1333L45.3197 78.4177V77.2755Z" fill="#263238"/>
<path d="M51.4665 74.8821V69.9247L55.4223 67.6356V72.593L51.4665 74.8821Z" fill="#E0E0E0"/>
<path d="M55.4223 72.593L54.4334 72.0242V68.2091L55.4223 67.6356V72.593Z" fill="#455A64"/>
<path d="M51.4665 73.7352L54.4334 72.0242L55.4223 72.593L51.4665 74.8821V73.7352Z" fill="#263238"/>
<path d="M39.173 91.4557V86.4983L43.1241 84.2139V89.1713L39.173 91.4557Z" fill="#E0E0E0"/>
<path d="M43.1241 89.1713L42.1352 88.5978L42.1399 84.7826L43.1241 84.2139V89.1713Z" fill="#455A64"/>
<path d="M39.173 90.3135L42.1352 88.5978L43.1241 89.1713L39.173 91.4557V90.3135Z" fill="#263238"/>
<path d="M45.3197 87.9201V82.958L49.2756 80.6736V85.631L45.3197 87.9201Z" fill="#E0E0E0"/>
<path d="M49.2756 85.631L48.2866 85.0575V81.2471L49.2756 80.6736V85.631Z" fill="#455A64"/>
<path d="M45.3197 86.7732L48.2866 85.0575L49.2756 85.631L45.3197 87.9201V86.7732Z" fill="#263238"/>
<path d="M51.4665 84.3798V79.4224L55.4223 77.1333V82.0907L51.4665 84.3798Z" fill="#E0E0E0"/>
<path d="M55.4223 82.0907L54.4334 81.5219V77.7068L55.4223 77.1333V82.0907Z" fill="#455A64"/>
<path d="M51.4665 83.2376L54.4334 81.5219L55.4223 82.0907L51.4665 84.3798V83.2376Z" fill="#263238"/>
<path d="M39.173 72.6593V67.7019L43.1241 65.4176V70.3749L39.173 72.6593Z" fill="#E0E0E0"/>
<path d="M43.1241 70.3749L42.1352 69.8015L42.1399 65.9863L43.1241 65.4176V70.3749Z" fill="#455A64"/>
<path d="M39.173 71.5171L42.1352 69.8015L43.1241 70.3749L39.173 72.6593V71.5171Z" fill="#263238"/>
<path d="M45.3197 69.0811V64.1237L49.2756 61.8393V66.7967L45.3197 69.0811Z" fill="#E0E0E0"/>
<path d="M49.2756 66.7967L48.2866 66.2232V62.4081L49.2756 61.8393V66.7967Z" fill="#455A64"/>
<path d="M45.3197 67.9389L48.2866 66.2232L49.2756 66.7967L45.3197 69.0811V67.9389Z" fill="#263238"/>
<path d="M51.4665 65.5029V60.5455L55.4223 58.2611V63.2185L51.4665 65.5029Z" fill="#E0E0E0"/>
<path d="M55.4223 63.2185L54.4334 62.645V58.8298L55.4223 58.2611V63.2185Z" fill="#455A64"/>
<path d="M51.4665 64.3607L54.4334 62.645L55.4223 63.2185L51.4665 65.5029V64.3607Z" fill="#263238"/>
<path d="M39.173 63.3607V58.4033L43.1241 56.1189V61.0763L39.173 63.3607Z" fill="#E0E0E0"/>
<path d="M43.1241 61.0763L42.1352 60.5028L42.1399 56.6876L43.1241 56.1189V61.0763Z" fill="#455A64"/>
<path d="M39.173 62.2185L42.1352 60.5028L43.1241 61.0763L39.173 63.3607V62.2185Z" fill="#263238"/>
<path d="M45.3197 59.7445V54.7871L49.2756 52.498V57.4602L45.3197 59.7445Z" fill="#E0E0E0"/>
<path d="M49.2756 57.4602L48.2866 56.8867V53.0715L49.2756 52.498V57.4602Z" fill="#455A64"/>
<path d="M45.3197 58.6023L48.2866 56.8867L49.2756 57.4602L45.3197 59.7445V58.6023Z" fill="#263238"/>
<path d="M51.4665 56.1284V51.171L55.4223 48.8819V53.8393L51.4665 56.1284Z" fill="#E0E0E0"/>
<path d="M55.4223 53.8393L54.4334 53.2705V49.4554L55.4223 48.8819V53.8393Z" fill="#455A64"/>
<path d="M51.4665 54.9862L54.4334 53.2705L55.4223 53.8393L51.4665 56.1284V54.9862Z" fill="#263238"/>
<path d="M39.173 54.0668V49.1046L43.1241 46.8203V51.7776L39.173 54.0668Z" fill="#E0E0E0"/>
<path d="M43.1241 51.7776L42.1352 51.2042L42.1399 47.3937L43.1241 46.8203V51.7776Z" fill="#455A64"/>
<path d="M39.173 52.9198L42.1352 51.2042L43.1241 51.7776L39.173 54.0668V52.9198Z" fill="#263238"/>
<path d="M45.3197 50.408V45.4506L49.2756 43.1615V48.1188L45.3197 50.408Z" fill="#E0E0E0"/>
<path d="M49.2756 48.1188L48.2866 47.5501V43.7349L49.2756 43.1615V48.1188Z" fill="#455A64"/>
<path d="M45.3197 49.2658L48.2866 47.5501L49.2756 48.1188L45.3197 50.408V49.2658Z" fill="#263238"/>
<path d="M51.4665 46.7492V41.7918L55.4223 39.5074V44.4648L51.4665 46.7492Z" fill="#E0E0E0"/>
<path d="M55.4223 44.4648L54.4334 43.8913V40.0761L55.4223 39.5074V44.4648Z" fill="#455A64"/>
<path d="M51.4665 45.607L54.4334 43.8913L55.4223 44.4648L51.4665 46.7492V45.607Z" fill="#263238"/>
<path d="M17.5057 31.1235L34.8055 21.1186L54.0217 32.2325L36.7266 42.2373L17.5057 31.1235Z" fill="#F0F0F0"/>
<path d="M34.8055 21.1186V23.3414L52.1006 33.3462L54.0217 32.2325L34.8055 21.1186Z" fill="#455A64"/>
<path d="M34.8055 21.1186L17.5057 31.1235L19.4268 32.2325L34.8055 23.3414V21.1186Z" fill="#263238"/>
<path d="M170.133 96.7022L148.991 84.4746V32.2325L170.138 44.4601L170.133 96.7022Z" fill="#455A64"/>
<path d="M170.138 44.4601L193.201 31.1235V83.3608L170.133 96.7022L170.138 44.4601Z" fill="#37474F"/>
<path d="M148.991 32.2325L172.059 18.8959L193.201 31.1235L170.138 44.4601L148.991 32.2325Z" fill="#37474F"/>
<path d="M184.57 88.3656V79.4698L178.589 82.9106L178.594 91.8016L184.57 88.3656Z" fill="#E0E0E0"/>
<path d="M181.958 80.9722L181.381 81.3087V90.1997L181.958 89.8632V80.9722Z" fill="#263238"/>
<path d="M172.551 81.958V77.0006L176.507 74.7115V79.6689L172.551 81.958Z" fill="#E0E0E0"/>
<path d="M176.507 79.6689L175.518 79.1001V75.2849L176.507 74.7115V79.6689Z" fill="#263238"/>
<path d="M172.551 80.8158L175.518 79.1001L176.507 79.6689L172.551 81.958V80.8158Z" fill="#455A64"/>
<path d="M172.551 91.4557V86.4983L176.507 84.2139V89.1713L172.551 91.4557Z" fill="#E0E0E0"/>
<path d="M176.507 89.1713L175.518 88.5978V84.7826L176.507 84.2139V89.1713Z" fill="#263238"/>
<path d="M172.551 90.3135L175.518 88.5978L176.507 89.1713L172.551 91.4557V90.3135Z" fill="#455A64"/>
<path d="M172.551 72.6593V67.7019L176.507 65.4176V70.3749L172.551 72.6593Z" fill="#E0E0E0"/>
<path d="M176.507 70.3749L175.518 69.8015V65.9863L176.507 65.4176V70.3749Z" fill="#263238"/>
<path d="M172.551 71.5171L175.518 69.8015L176.507 70.3749L172.551 72.6593V71.5171Z" fill="#455A64"/>
<path d="M172.551 63.3607V58.4033L176.507 56.1189V61.0763L172.551 63.3607Z" fill="#E0E0E0"/>
<path d="M176.507 61.0763L175.518 60.5028V56.6876L176.507 56.1189V61.0763Z" fill="#263238"/>
<path d="M172.551 62.2185L175.518 60.5028L176.507 61.0763L172.551 63.3607V62.2185Z" fill="#455A64"/>
<path d="M172.551 54.0668V49.1046L176.507 46.8203V51.7776L172.551 54.0668Z" fill="#E0E0E0"/>
<path d="M176.507 51.7776L175.518 51.2042V47.3937L176.507 46.8203V51.7776Z" fill="#263238"/>
<path d="M172.551 52.9198L175.518 51.2042L176.507 51.7776L172.551 54.0668V52.9198Z" fill="#455A64"/>
<path d="M186.827 73.7067V68.7493L190.778 66.4602V71.4176L186.827 73.7067Z" fill="#E0E0E0"/>
<path d="M190.778 71.4176L189.794 70.8489V67.0337L190.778 66.4602V71.4176Z" fill="#263238"/>
<path d="M186.827 72.5645L189.794 70.8489L190.778 71.4176L186.827 73.7067V72.5645Z" fill="#455A64"/>
<path d="M186.827 83.2044V78.247L190.778 75.9627V80.9153L186.827 83.2044Z" fill="#E0E0E0"/>
<path d="M190.778 80.9153L189.794 80.3466V76.5314L190.778 75.9627V80.9153Z" fill="#263238"/>
<path d="M186.827 82.0622L189.794 80.3466L190.778 80.9153L186.827 83.2044V82.0622Z" fill="#455A64"/>
<path d="M186.827 64.3275V59.3701L190.778 57.0857V62.0431L186.827 64.3275Z" fill="#E0E0E0"/>
<path d="M190.778 62.0431L189.794 61.4697V57.6545L190.778 57.0857V62.0431Z" fill="#263238"/>
<path d="M186.827 63.1853L189.794 61.4697L190.778 62.0431L186.827 64.3275V63.1853Z" fill="#455A64"/>
<path d="M186.827 54.953V49.9956L190.778 47.7065V52.6639L186.827 54.953Z" fill="#E0E0E0"/>
<path d="M190.778 52.6639L189.794 52.0952V48.28L190.778 47.7065V52.6639Z" fill="#263238"/>
<path d="M186.827 53.8108L189.794 52.0952L190.778 52.6639L186.827 54.953V53.8108Z" fill="#455A64"/>
<path d="M186.827 45.5738V40.6164L190.778 38.332V43.2894L186.827 45.5738Z" fill="#FAFAFA"/>
<path d="M190.778 43.2894L189.794 42.716V38.9008L190.778 38.332V43.2894Z" fill="#263238"/>
<path d="M186.827 44.4316L189.794 42.716L190.778 43.2894L186.827 45.5738V44.4316Z" fill="#455A64"/>
<path d="M184.57 41.6733L182.261 43.0051V76.3466L184.57 75.0195V41.6733Z" fill="#FAFAFA"/>
<path d="M184.57 41.6733L183.591 42.2373V74.4698L184.57 75.0195V41.6733Z" fill="#263238"/>
<path d="M183.591 74.4698L182.261 75.2091V76.3466L184.57 75.0195L183.591 74.4698Z" fill="#455A64"/>
<path d="M180.898 43.7728L178.594 45.0999V78.4461L180.898 77.1143V43.7728Z" fill="#FAFAFA"/>
<path d="M180.898 43.7728L179.923 44.3368V76.5646L180.898 77.1143V43.7728Z" fill="#263238"/>
<path d="M179.923 76.5646L178.594 77.3039V78.4461L180.898 77.1143L179.923 76.5646Z" fill="#455A64"/>
<path d="M167.691 81.958V77.0006L163.735 74.7115V79.6689L167.691 81.958Z" fill="#E0E0E0"/>
<path d="M163.735 79.6689L164.724 79.1001V75.2849L163.735 74.7115V79.6689Z" fill="#37474F"/>
<path d="M167.691 80.8158L164.724 79.1001L163.735 79.6689L167.691 81.958V80.8158Z" fill="#263238"/>
<path d="M161.54 78.4177V73.4603L157.589 71.1759V76.1333L161.54 78.4177Z" fill="#E0E0E0"/>
<path d="M157.589 76.1333L158.573 75.5598V71.7446L157.589 71.1759V76.1333Z" fill="#37474F"/>
<path d="M161.54 77.2755L158.573 75.5598L157.589 76.1333L161.54 78.4177V77.2755Z" fill="#263238"/>
<path d="M155.393 74.8821V69.9247L151.437 67.6356V72.593L155.393 74.8821Z" fill="#E0E0E0"/>
<path d="M151.437 72.593L152.426 72.0242V68.2091L151.437 67.6356V72.593Z" fill="#37474F"/>
<path d="M155.393 73.7352L152.426 72.0242L151.437 72.593L155.393 74.8821V73.7352Z" fill="#263238"/>
<path d="M167.691 91.4557V86.4983L163.735 84.2139V89.1713L167.691 91.4557Z" fill="#E0E0E0"/>
<path d="M163.735 89.1713L164.724 88.5978V84.7826L163.735 84.2139V89.1713Z" fill="#37474F"/>
<path d="M167.691 90.3135L164.724 88.5978L163.735 89.1713L167.691 91.4557V90.3135Z" fill="#263238"/>
<path d="M161.54 87.9201V82.958L157.589 80.6736V85.631L161.54 87.9201Z" fill="#E0E0E0"/>
<path d="M157.589 85.631L158.573 85.0575V81.2471L157.589 80.6736V85.631Z" fill="#37474F"/>
<path d="M161.54 86.7732L158.573 85.0575L157.589 85.631L161.54 87.9201V86.7732Z" fill="#263238"/>
<path d="M155.393 84.3798V79.4224L151.437 77.1333V82.0907L155.393 84.3798Z" fill="#E0E0E0"/>
<path d="M151.437 82.0907L152.426 81.5219V77.7068L151.437 77.1333V82.0907Z" fill="#37474F"/>
<path d="M155.393 83.2376L152.426 81.5219L151.437 82.0907L155.393 84.3798V83.2376Z" fill="#263238"/>
<path d="M167.691 72.6593V67.7019L163.735 65.4176V70.3749L167.691 72.6593Z" fill="#E0E0E0"/>
<path d="M163.735 70.3749L164.724 69.8015V65.9863L163.735 65.4176V70.3749Z" fill="#37474F"/>
<path d="M167.691 71.5171L164.724 69.8015L163.735 70.3749L167.691 72.6593V71.5171Z" fill="#263238"/>
<path d="M161.54 69.0811V64.1237L157.589 61.8393V66.7967L161.54 69.0811Z" fill="#E0E0E0"/>
<path d="M157.589 66.7967L158.573 66.2232V62.4081L157.589 61.8393V66.7967Z" fill="#37474F"/>
<path d="M161.54 67.9389L158.573 66.2232L157.589 66.7967L161.54 69.0811V67.9389Z" fill="#263238"/>
<path d="M155.393 65.5029V60.5455L151.437 58.2611V63.2185L155.393 65.5029Z" fill="#E0E0E0"/>
<path d="M151.437 63.2185L152.426 62.645V58.8298L151.437 58.2611V63.2185Z" fill="#37474F"/>
<path d="M155.393 64.3607L152.426 62.645L151.437 63.2185L155.393 65.5029V64.3607Z" fill="#263238"/>
<path d="M167.691 63.3607V58.4033L163.735 56.1189V61.0763L167.691 63.3607Z" fill="#E0E0E0"/>
<path d="M163.735 61.0763L164.724 60.5028V56.6876L163.735 56.1189V61.0763Z" fill="#37474F"/>
<path d="M167.691 62.2185L164.724 60.5028L163.735 61.0763L167.691 63.3607V62.2185Z" fill="#263238"/>
<path d="M161.54 59.7445V54.7871L157.589 52.498V57.4602L161.54 59.7445Z" fill="#E0E0E0"/>
<path d="M157.589 57.4602L158.573 56.8867V53.0715L157.589 52.498V57.4602Z" fill="#37474F"/>
<path d="M161.54 58.6023L158.573 56.8867L157.589 57.4602L161.54 59.7445V58.6023Z" fill="#263238"/>
<path d="M155.393 56.1284V51.171L151.437 48.8819V53.8393L155.393 56.1284Z" fill="#E0E0E0"/>
<path d="M151.437 53.8393L152.426 53.2705V49.4554L151.437 48.8819V53.8393Z" fill="#37474F"/>
<path d="M155.393 54.9862L152.426 53.2705L151.437 53.8393L155.393 56.1284V54.9862Z" fill="#263238"/>
<path d="M167.691 54.0668V49.1046L163.735 46.8203V51.7776L167.691 54.0668Z" fill="#E0E0E0"/>
<path d="M163.735 51.7776L164.724 51.2042V47.3937L163.735 46.8203V51.7776Z" fill="#37474F"/>
<path d="M167.691 52.9198L164.724 51.2042L163.735 51.7776L167.691 54.0668V52.9198Z" fill="#263238"/>
<path d="M161.54 50.408V45.4506L157.589 43.1615V48.1188L161.54 50.408Z" fill="#E0E0E0"/>
<path d="M157.589 48.1188L158.573 47.5501V43.7349L157.589 43.1615V48.1188Z" fill="#37474F"/>
<path d="M161.54 49.2658L158.573 47.5501L157.589 48.1188L161.54 50.408V49.2658Z" fill="#263238"/>
<path d="M155.393 46.7492V41.7918L151.437 39.5074V44.4648L155.393 46.7492Z" fill="#E0E0E0"/>
<path d="M151.437 44.4648L152.426 43.8913V40.0761L151.437 39.5074V44.4648Z" fill="#37474F"/>
<path d="M155.393 45.607L152.426 43.8913L151.437 44.4648L155.393 46.7492V45.607Z" fill="#263238"/>
<path d="M189.359 31.1235L172.059 21.1186L152.838 32.2325L170.138 42.2373L189.359 31.1235Z" fill="#F0F0F0"/>
<path d="M172.059 21.1186V23.3414L154.759 33.3462L152.838 32.2325L172.059 21.1186Z" fill="#263238"/>
<path d="M172.059 21.1186L189.359 31.1235L187.433 32.2325L172.059 23.3414V21.1186Z" fill="#455A64"/>
<path d="M138.775 145.522C136.369 146.513 133.671 146.513 131.265 145.522C129.193 144.532 129.193 142.93 131.265 141.939C133.671 140.949 136.369 140.949 138.775 141.939C140.852 142.93 140.852 144.532 138.775 145.522Z" fill="#E0E0E0"/>
<path d="M61.1101 142.257C63.5172 143.248 66.2172 143.248 68.6243 142.257C70.6969 141.266 70.6969 139.665 68.6243 138.674C66.2172 137.683 63.5172 137.683 61.1101 138.674C59.047 139.665 59.047 141.266 61.1101 142.257Z" fill="#E0E0E0"/>
<path d="M105.027 141.679L151.03 115.077C151.339 114.913 151.598 114.667 151.778 114.367C151.958 114.067 152.053 113.723 152.053 113.373C152.053 113.023 151.958 112.679 151.778 112.379C151.598 112.079 151.339 111.833 151.03 111.669L105.022 85.067C104.705 84.9059 104.354 84.8219 103.998 84.8219C103.642 84.8219 103.291 84.9059 102.973 85.067L56.9697 111.65C56.6608 111.814 56.4024 112.06 56.2221 112.36C56.0419 112.66 55.9467 113.004 55.9467 113.354C55.9467 113.704 56.0419 114.048 56.2221 114.348C56.4024 114.648 56.6608 114.894 56.9697 115.058L102.978 141.66C103.294 141.824 103.644 141.911 104 141.914C104.356 141.918 104.708 141.837 105.027 141.679Z" fill="#FF9900"/>
<path d="M105.027 141.679L151.03 115.077C151.339 114.913 151.598 114.667 151.778 114.367C151.958 114.067 152.053 113.723 152.053 113.373C152.053 113.023 151.958 112.679 151.778 112.379C151.598 112.079 151.339 111.833 151.03 111.669L105.022 85.067C104.705 84.9059 104.354 84.8219 103.998 84.8219C103.642 84.8219 103.291 84.9059 102.973 85.067L56.9697 111.65C56.6608 111.814 56.4024 112.06 56.2221 112.36C56.0419 112.66 55.9467 113.004 55.9467 113.354C55.9467 113.704 56.0419 114.048 56.2221 114.348C56.4024 114.648 56.6608 114.894 56.9697 115.058L102.978 141.66C103.294 141.824 103.644 141.911 104 141.914C104.356 141.918 104.708 141.837 105.027 141.679Z" fill="#FF9900"/>
<path d="M105.027 141.679L151.03 115.077C151.339 114.913 151.598 114.667 151.778 114.367C151.958 114.067 152.053 113.723 152.053 113.373C152.053 113.023 151.958 112.679 151.778 112.379C151.598 112.079 151.339 111.833 151.03 111.669L105.022 85.067C104.705 84.9059 104.354 84.8219 103.998 84.8219C103.642 84.8219 103.291 84.9059 102.973 85.067L56.9697 111.65C56.6608 111.814 56.4024 112.06 56.2221 112.36C56.0419 112.66 55.9467 113.004 55.9467 113.354C55.9467 113.704 56.0419 114.048 56.2221 114.348C56.4024 114.648 56.6608 114.894 56.9697 115.058L102.978 141.66C103.294 141.824 103.644 141.911 104 141.914C104.356 141.918 104.708 141.837 105.027 141.679Z" fill="#FF9900"/>
<path d="M105.027 141.679L151.03 115.077C151.339 114.913 151.598 114.667 151.778 114.367C151.958 114.067 152.053 113.723 152.053 113.373C152.053 113.023 151.958 112.679 151.778 112.379C151.598 112.079 151.339 111.833 151.03 111.669L105.022 85.067C104.705 84.9059 104.354 84.8219 103.998 84.8219C103.642 84.8219 103.291 84.9059 102.973 85.067L56.9697 111.65C56.6608 111.814 56.4024 112.06 56.2221 112.36C56.0419 112.66 55.9467 113.004 55.9467 113.354C55.9467 113.704 56.0419 114.048 56.2221 114.348C56.4024 114.648 56.6608 114.894 56.9697 115.058L102.978 141.66C103.294 141.824 103.644 141.911 104 141.914C104.356 141.918 104.708 141.837 105.027 141.679Z" fill="black"/>
<path d="M56.9697 112.854L102.978 139.456C103.295 139.617 103.646 139.701 104.002 139.701C104.358 139.701 104.709 139.617 105.027 139.456L151.03 112.854C151.154 112.812 151.261 112.732 151.337 112.626C151.413 112.52 151.454 112.392 151.454 112.262C151.454 112.131 151.413 112.003 151.337 111.897C151.261 111.791 151.154 111.711 151.03 111.669L105.022 85.067C104.705 84.9059 104.354 84.8219 103.998 84.8219C103.642 84.8219 103.291 84.9059 102.973 85.067L56.9697 111.65C56.8389 111.687 56.7237 111.766 56.6417 111.875C56.5597 111.983 56.5153 112.116 56.5153 112.252C56.5153 112.388 56.5597 112.521 56.6417 112.629C56.7237 112.738 56.8389 112.817 56.9697 112.854Z" fill="#FF9900"/>
<path d="M111.689 130.044L144.363 111.148V32.2325L111.689 51.1284V130.044Z" fill="#37474F"/>
<path d="M104 135.603V55.5739L63.6369 32.2325V112.262L104 135.603Z" fill="#455A64"/>
<path d="M104 102.257L63.6369 78.9153V76.6925L59.7899 78.9153L104 104.479V102.257Z" fill="#FF9900"/>
<path d="M104 102.257L63.6369 78.9153V76.6925L59.7899 78.9153L104 104.479V102.257Z" fill="white"/>
<path d="M59.7899 78.9153L104 104.479V106.702L59.7899 81.1381V78.9153Z" fill="#FF9900"/>
<path d="M104 102.257L111.689 97.8112L113.61 98.9249L104 104.479V102.257Z" fill="#FF9900"/>
<path d="M104 102.257L111.689 97.8112L113.61 98.9249L104 104.479V102.257Z" fill="white"/>
<path d="M104 106.702L113.61 101.148V98.9249L104 104.479V106.702Z" fill="#FF9900"/>
<path d="M104 106.702L113.61 101.148V98.9249L104 104.479V106.702Z" fill="black"/>
<path d="M104 55.5739L111.689 51.1284L111.689 97.8112L104 102.257V55.5739Z" fill="#263238"/>
<path d="M104 106.702L111.689 102.257V131.157L104 135.603V106.702Z" fill="#263238"/>
<path d="M100.158 95.5884V84.4746L92.4684 80.029V91.1429L100.158 95.5884Z" fill="#FF9900"/>
<path d="M100.158 95.5884V84.4746L92.4684 80.029V91.1429L100.158 95.5884Z" fill="white"/>
<path d="M92.4684 91.1429L94.3895 90.0339V81.1381L92.4684 80.029V91.1429Z" fill="#263238"/>
<path d="M100.158 93.3656L94.3895 90.0339L92.4684 91.1429L100.158 95.5884V93.3656Z" fill="#263238"/>
<path d="M88.6213 88.9201V77.8063L79.0109 72.247V83.3608L88.6213 88.9201Z" fill="#FF9900"/>
<path d="M88.6213 88.9201V77.8063L79.0109 72.247V83.3608L88.6213 88.9201Z" fill="white"/>
<path d="M80.932 82.2518L80.9367 73.3607L79.0109 72.247V83.3608L80.932 82.2518Z" fill="#263238"/>
<path d="M88.6213 86.6973V88.9201L79.0109 83.3608L80.932 82.2518L88.6213 86.6973Z" fill="#263238"/>
<path d="M116.492 119.484V108.37L126.103 102.816V113.93L116.492 119.484Z" fill="#FF9900"/>
<path d="M124.182 112.816V103.925L126.103 102.816V113.93L124.182 112.816Z" fill="#263238"/>
<path d="M116.492 117.262V119.484L126.103 113.93L124.182 112.816L116.492 117.262Z" fill="#263238"/>
<path d="M116.492 100.963V89.849L126.103 84.2897V95.4036L116.492 100.963Z" fill="#FF9900"/>
<path d="M124.182 94.2946V85.3987L126.103 84.2897V95.4036L124.182 94.2946Z" fill="#263238"/>
<path d="M116.492 98.7401V100.963L126.103 95.4036L124.182 94.2946L116.492 98.7401Z" fill="#263238"/>
<path d="M116.492 82.4366V71.3228L126.103 65.7635V76.8774L116.492 82.4366Z" fill="#FF9900"/>
<path d="M124.182 75.7683V66.8773L126.103 65.7635V76.8774L124.182 75.7683Z" fill="#263238"/>
<path d="M116.492 80.2139V82.4366L126.103 76.8774L124.182 75.7683L116.492 80.2139Z" fill="#263238"/>
<path d="M116.492 63.9104V52.7966L126.103 47.2373V58.3559L116.492 63.9104Z" fill="#FF9900"/>
<path d="M124.182 57.2421V48.3511L126.103 47.2373V58.3559L124.182 57.2421Z" fill="#263238"/>
<path d="M116.492 61.6877V63.9104L126.103 58.3559L124.182 57.2421L116.492 61.6877Z" fill="#263238"/>
<path d="M130.158 111.584V100.47L139.773 94.9154L139.768 106.029L130.158 111.584Z" fill="#FF9900"/>
<path d="M137.847 104.915V96.0244L139.773 94.9154L139.768 106.029L137.847 104.915Z" fill="#263238"/>
<path d="M130.158 109.366V111.584L139.768 106.029L137.847 104.915L130.158 109.366Z" fill="#263238"/>
<path d="M130.158 93.0623V81.9438L139.773 76.3892L139.768 87.503L130.158 93.0623Z" fill="#FF9900"/>
<path d="M137.847 86.394V77.4982L139.773 76.3892L139.768 87.503L137.847 86.394Z" fill="#263238"/>
<path d="M130.158 90.8395V93.0623L139.768 87.503L137.847 86.394L130.158 90.8395Z" fill="#263238"/>
<path d="M130.158 74.5361V63.4223L139.773 57.863L139.768 68.9816L130.158 74.5361Z" fill="#FF9900"/>
<path d="M137.847 67.8678V58.9768L139.773 57.863L139.768 68.9816L137.847 67.8678Z" fill="#263238"/>
<path d="M130.158 72.3133V74.5361L139.768 68.9816L137.847 67.8678L130.158 72.3133Z" fill="#263238"/>
<path d="M130.158 56.0099V44.8961L139.773 39.3415L139.768 50.4554L130.158 56.0099Z" fill="#FF9900"/>
<path d="M137.847 49.3416V40.4505L139.773 39.3415L139.768 50.4554L137.847 49.3416Z" fill="#263238"/>
<path d="M130.158 53.7871V56.0099L139.768 50.4554L137.847 49.3416L130.158 53.7871Z" fill="#263238"/>
<path d="M75.1686 81.1381V70.0242L67.4792 65.5787V76.6925L75.1686 81.1381Z" fill="#FF9900"/>
<path d="M75.1686 81.1381V70.0242L67.4792 65.5787V76.6925L75.1686 81.1381Z" fill="white"/>
<path d="M69.4004 75.5835L67.4792 76.6925V65.5787L69.4004 66.6925V75.5835Z" fill="#263238"/>
<path d="M75.1686 78.9153L69.4004 75.5835L67.4792 76.6925L75.1686 81.1381V78.9153Z" fill="#263238"/>
<path d="M79.0109 102.366C79.0109 99.2282 81.1639 97.9249 83.8185 99.4605C86.4731 100.996 88.6213 104.783 88.6213 107.925V126.712L79.0109 121.153V102.366Z" fill="#263238"/>
<path d="M88.6213 107.925C88.6213 104.783 86.4731 100.991 83.8185 99.4605C83.1426 99.0316 82.3566 98.8093 81.5566 98.8207C81.1175 99.5549 80.902 100.402 80.9367 101.257V120.044L88.6213 124.489V107.925Z" fill="#455A64"/>
<path d="M88.6213 107.925C88.6213 104.783 86.4731 100.991 83.8185 99.4605C83.1426 99.0316 82.3566 98.8093 81.5566 98.8207C81.1175 99.5549 80.902 100.402 80.9367 101.257V120.044L88.6213 124.489V107.925Z" fill="#FF9900"/>
<path d="M88.6213 107.925C88.6213 104.783 86.4731 100.991 83.8185 99.4605C83.1426 99.0316 82.3566 98.8093 81.5566 98.8207C81.1175 99.5549 80.902 100.402 80.9367 101.257V120.044L88.6213 124.489V107.925Z" fill="white"/>
<path d="M85.2049 100.508C84.9098 100.229 84.5934 99.9741 84.2585 99.7448V104.74L80.9462 102.816V103.968L84.2585 105.897V120.299L85.2049 120.845V106.437L88.6213 108.413V107.939C88.6213 107.712 88.6213 107.465 88.5882 107.252L85.2049 105.299V100.508Z" fill="#455A64"/>
<path d="M104 55.5739V48.9056L61.711 24.4552V31.1235L104 55.5739Z" fill="#FF9900"/>
<path d="M104 55.5739V48.9056L61.711 24.4552V31.1235L104 55.5739Z" fill="white"/>
<path d="M104 55.5739V48.9056L146.289 24.4552V31.1235L104 55.5739Z" fill="#FF9900"/>
<path d="M104 55.5739V48.9056L146.289 24.4552V31.1235L104 55.5739Z" fill="black"/>
<path d="M67.4792 43.6401C67.4792 41.024 69.2016 39.896 71.3215 41.1235C73.4414 42.351 75.1686 45.4695 75.1686 48.0857V65.5787L67.4792 61.1332V43.6401Z" fill="#263238"/>
<path d="M71.3215 41.1188C70.8642 40.8443 70.3486 40.6819 69.8168 40.6449C69.5241 41.2327 69.3811 41.884 69.4004 42.5406V60.0336L75.1686 63.3512V48.0809C75.1686 45.4648 73.4461 42.3463 71.3215 41.1188Z" fill="#FF9900"/>
<path d="M71.3215 41.1188C70.8642 40.8443 70.3486 40.6819 69.8168 40.6449C69.5241 41.2327 69.3811 41.884 69.4004 42.5406V60.0336L75.1686 63.3512V48.0809C75.1686 45.4648 73.4461 42.3463 71.3215 41.1188Z" fill="white"/>
<path d="M67.4792 61.1332L69.4004 60.0194L75.1686 63.3512L75.1686 65.5787L67.4792 61.1332Z" fill="#263238"/>
<path d="M79.0109 51.2563C79.0109 48.1141 81.1639 46.8155 83.8185 48.3511C86.4731 49.8866 88.6213 53.6734 88.6213 56.8156V73.3607L79.0109 67.8015V51.2563Z" fill="#263238"/>
<path d="M88.6213 56.8156C88.6213 53.6734 86.4731 49.8819 83.8185 48.3511C83.1426 47.9222 82.3566 47.6999 81.5566 47.7113C81.1175 48.4455 80.902 49.2921 80.9367 50.1473V66.6877L88.6213 71.138V56.8156Z" fill="#FF9900"/>
<path d="M88.6213 56.8156C88.6213 53.6734 86.4731 49.8819 83.8185 48.3511C83.1426 47.9222 82.3566 47.6999 81.5566 47.7113C81.1175 48.4455 80.902 49.2921 80.9367 50.1473V66.6877L88.6213 71.138V56.8156Z" fill="white"/>
<path d="M80.9367 66.6877L79.0109 67.8015L88.6213 73.3607V71.138L80.9367 66.6877Z" fill="#263238"/>
<path d="M92.4684 58.0952C92.4684 55.4791 94.1861 54.3511 96.3107 55.5786C98.4353 56.8061 100.158 59.9246 100.158 62.5408V80.0338L92.4684 75.5883V58.0952Z" fill="#263238"/>
<path d="M96.3107 55.5739C95.8531 55.3 95.3377 55.1377 94.8059 55.0999C94.5125 55.6876 94.3694 56.339 94.3895 56.9957V74.4887L100.158 77.8063V62.536C100.158 59.9199 98.4353 56.8014 96.3107 55.5739Z" fill="#FF9900"/>
<path d="M96.3107 55.5739C95.8531 55.3 95.3377 55.1377 94.8059 55.0999C94.5125 55.6876 94.3694 56.339 94.3895 56.9957V74.4887L100.158 77.8063V62.536C100.158 59.9199 98.4353 56.8014 96.3107 55.5739Z" fill="white"/>
<path d="M94.3895 74.4698L92.4684 75.5835L100.158 80.029L100.158 77.8063L94.3895 74.4698Z" fill="#263238"/>
<path d="M92.4684 109.2C92.4684 106.584 94.1861 105.456 96.3107 106.683C98.4353 107.911 100.158 111.029 100.158 113.645V133.38L92.4684 128.935V109.2Z" fill="#263238"/>
<path d="M96.3107 106.683C95.8531 106.409 95.3376 106.247 94.8059 106.209C94.5133 106.797 94.3702 107.448 94.3895 108.105V127.835L100.158 131.153V113.617C100.158 111.029 98.4353 107.911 96.3107 106.683Z" fill="#FF9900"/>
<path d="M96.3107 106.683C95.8531 106.409 95.3376 106.247 94.8059 106.209C94.5133 106.797 94.3702 107.448 94.3895 108.105V127.835L100.158 131.153V113.617C100.158 111.029 98.4353 107.911 96.3107 106.683Z" fill="white"/>
<path d="M92.4684 128.935V122.266L100.158 126.712V133.38L92.4684 128.935Z" fill="#37474F"/>
<path d="M92.4684 122.266L94.3895 121.153L100.153 124.489L100.158 126.712L92.4684 122.266Z" fill="#263238"/>
<path d="M67.4792 94.7495C67.4792 92.1334 69.2016 91.0054 71.3215 92.2329C73.4414 93.4604 75.1686 96.5789 75.1686 99.1951V118.93L67.4792 114.494V94.7495Z" fill="#263238"/>
<path d="M71.3215 92.2187C70.8633 91.9463 70.3482 91.7841 69.8168 91.7448C69.5241 92.3327 69.3811 92.9839 69.4004 93.6405V113.375L75.1686 116.693V99.1572C75.1686 96.5742 73.4461 93.4557 71.3215 92.2187Z" fill="#FF9900"/>
<path d="M71.3215 92.2187C70.8633 91.9463 70.3482 91.7841 69.8168 91.7448C69.5241 92.3327 69.3811 92.9839 69.4004 93.6405V113.375L75.1686 116.693V99.1572C75.1686 96.5742 73.4461 93.4557 71.3215 92.2187Z" fill="white"/>
<path d="M75.1686 118.93V112.262L67.4792 107.816V114.484L75.1686 118.93Z" fill="#37474F"/>
<path d="M67.4792 107.816L69.4004 106.702L75.1686 110.039V112.262L67.4792 107.816Z" fill="#263238"/>
<path d="M79.0109 121.153V118.93L88.6213 124.489V126.712L79.0109 121.153Z" fill="#37474F"/>
<path d="M79.0109 118.93L80.9367 117.821L88.6213 122.266V124.489L79.0109 118.93Z" fill="#263238"/>
<path d="M104 48.9056L146.289 24.4552L104 0L61.711 24.4552L104 48.9056Z" fill="#FF9900"/>
<path d="M104 48.9056L146.289 24.4552L104 0L61.711 24.4552L104 48.9056Z" fill="white"/>
<path d="M104 44.4601L138.6 24.4552L104 4.44553L69.4004 24.4552L104 44.4601Z" fill="#FF9900"/>
<path d="M104 4.44553V11.1186L75.1686 27.7869L69.4004 24.4552L104 4.44553Z" fill="#FF9900"/>
<path d="M104 4.44553V11.1186L75.1686 27.7869L69.4004 24.4552L104 4.44553Z" fill="black"/>
<path d="M104 4.44553L138.6 24.4552L132.831 27.7869L104 11.1186V4.44553Z" fill="#FF9900"/>
<path d="M104 4.44553L138.6 24.4552L132.831 27.7869L104 11.1186V4.44553Z" fill="white"/>
<path d="M98.2318 10.0048L88.6213 15.5641L102.079 23.3414L111.689 17.7869L98.2318 10.0048Z" fill="#455A64"/>
<path d="M88.6213 15.5641V22.2324L102.079 30.0097V23.3414L88.6213 15.5641Z" fill="#37474F"/>
<path d="M111.689 17.7869V24.4552L102.079 30.0097V23.3414L111.689 17.7869Z" fill="#263238"/>
<path d="M95.0756 13.7347C93.3296 14.7442 93.3296 16.3793 95.0756 17.3888C96.0543 17.8866 97.1365 18.1461 98.2342 18.1461C99.3319 18.1461 100.414 17.8866 101.393 17.3888C103.134 16.3793 103.134 14.7442 101.393 13.7347C100.414 13.2368 99.3319 12.9773 98.2342 12.9773C97.1365 12.9773 96.0543 13.2368 95.0756 13.7347Z" fill="#37474F"/>
<path d="M96.7555 14.7774C95.9368 15.2086 95.9368 15.9148 96.7555 16.3461C97.2187 16.5616 97.7234 16.6732 98.2342 16.6732C98.745 16.6732 99.2496 16.5616 99.7129 16.3461C100.527 15.9148 100.527 15.2086 99.7129 14.7774C99.2496 14.5619 98.745 14.4503 98.2342 14.4503C97.7234 14.4503 97.2187 14.5619 96.7555 14.7774Z" fill="#263238"/>
<path d="M48.4097 89.2234V104.541C48.4188 104.65 48.457 104.755 48.5203 104.844C48.5835 104.933 48.6695 105.004 48.7693 105.048C49.0423 105.186 49.3437 105.258 49.6494 105.258C49.9552 105.258 50.2566 105.186 50.5296 105.048C50.6293 105.004 50.7153 104.933 50.7786 104.844C50.8418 104.755 50.88 104.65 50.8892 104.541V89.2329L48.4097 89.2234Z" fill="#37474F"/>
<path d="M55.6211 93.6784C55.6211 95.2647 54.9919 96.786 53.872 97.9077C52.7521 99.0294 51.2332 99.6595 49.6494 99.6595C48.0656 99.6595 46.5467 99.0294 45.4268 97.9077C44.3069 96.786 43.6778 95.2647 43.6778 93.6784C43.6778 87.5646 46.3513 80.8821 49.6494 80.8821C52.9476 80.8821 55.6211 87.4793 55.6211 93.6784Z" fill="#FF9900"/>
<path d="M55.6211 93.6784C55.6211 93.522 55.6211 93.3656 55.6211 93.2045V93.0481C55.5749 93.6998 55.3211 94.3194 54.8971 94.8159C53.7662 96.2377 51.2725 97.7827 48.6983 96.7116C44.3734 94.8965 44.2551 89.7732 45.2156 85.5315C44.207 88.1306 43.6888 90.8946 43.6872 93.6832C43.6872 95.2695 44.3164 96.7908 45.4363 97.9124C46.5562 99.0341 48.0751 99.6643 49.6589 99.6643C51.2427 99.6643 52.7616 99.0341 53.8815 97.9124C55.0014 96.7908 55.6305 95.2695 55.6305 93.6832L55.6211 93.6784Z" fill="#FF9900"/>
<path d="M55.6211 93.6784C55.6211 93.522 55.6211 93.3656 55.6211 93.2045V93.0481C55.5749 93.6998 55.3211 94.3194 54.8971 94.8159C53.7662 96.2377 51.2725 97.7827 48.6983 96.7116C44.3734 94.8965 44.2551 89.7732 45.2156 85.5315C44.207 88.1306 43.6888 90.8946 43.6872 93.6832C43.6872 95.2695 44.3164 96.7908 45.4363 97.9124C46.5562 99.0341 48.0751 99.6643 49.6589 99.6643C51.2427 99.6643 52.7616 99.0341 53.8815 97.9124C55.0014 96.7908 55.6305 95.2695 55.6305 93.6832L55.6211 93.6784Z" fill="black"/>
<path d="M4.72953 62.3607V77.6736C4.73934 77.7855 4.77929 77.8927 4.84512 77.9836C4.91095 78.0746 5.0002 78.146 5.10335 78.1902C5.37548 78.328 5.67616 78.3998 5.98112 78.3998C6.28607 78.3998 6.58676 78.328 6.85889 78.1902C6.95895 78.1454 7.04539 78.0749 7.10939 77.9859C7.1734 77.8968 7.21268 77.7923 7.22324 77.6831V62.3607H4.72953Z" fill="#37474F"/>
<path d="M11.9409 66.8299C11.9634 67.6292 11.8256 68.4249 11.5358 69.1699C11.2459 69.915 10.8098 70.5942 10.2533 71.1676C9.69675 71.7409 9.0311 72.1966 8.29568 72.5078C7.56026 72.819 6.77001 72.9793 5.97165 72.9793C5.1733 72.9793 4.38305 72.819 3.64763 72.5078C2.91222 72.1966 2.24657 71.7409 1.69004 71.1676C1.13352 70.5942 0.697429 69.915 0.407551 69.1699C0.117672 68.4249 -0.020105 67.6292 0.0023661 66.8299C0.0023661 60.7161 2.67589 54.0336 5.96929 54.0336C9.26269 54.0336 11.9409 60.6166 11.9409 66.8299Z" fill="#FF9900"/>
<path d="M203.27 62.3607V77.6736C203.26 77.7828 203.221 77.8873 203.157 77.9764C203.093 78.0655 203.006 78.136 202.906 78.1807C202.634 78.3185 202.333 78.3904 202.028 78.3904C201.723 78.3904 201.423 78.3185 201.151 78.1807C201.051 78.136 200.964 78.0655 200.9 77.9764C200.836 77.8873 200.797 77.7828 200.786 77.6736V62.3607H203.27Z" fill="#37474F"/>
<path d="M196.059 66.8299C196.037 67.6292 196.174 68.4249 196.464 69.1699C196.754 69.915 197.19 70.5942 197.747 71.1676C198.303 71.7409 198.969 72.1966 199.704 72.5078C200.44 72.819 201.23 72.9793 202.028 72.9793C202.827 72.9793 203.617 72.819 204.352 72.5078C205.088 72.1966 205.753 71.7409 206.31 71.1676C206.866 70.5942 207.303 69.915 207.592 69.1699C207.882 68.4249 208.02 67.6292 207.998 66.8299C207.998 60.7161 205.324 54.0336 202.031 54.0336C198.737 54.0336 196.059 60.6166 196.059 66.8299Z" fill="#FF9900"/>
<path d="M170.247 105.726H174.396V101.143C174.396 100.87 174.343 100.6 174.238 100.347C174.134 100.095 173.981 99.8663 173.788 99.6734C173.595 99.4806 173.366 99.3278 173.114 99.2238C172.862 99.1197 172.592 99.0665 172.319 99.0671C171.769 99.0671 171.242 99.2858 170.854 99.6751C170.465 100.064 170.247 100.592 170.247 101.143V105.726Z" fill="#FF9900"/>
<path d="M170.247 105.726H174.396V101.143C174.396 100.87 174.343 100.6 174.238 100.347C174.134 100.095 173.981 99.8663 173.788 99.6734C173.595 99.4806 173.366 99.3278 173.114 99.2238C172.862 99.1197 172.592 99.0665 172.319 99.0671C171.769 99.0671 171.242 99.2858 170.854 99.6751C170.465 100.064 170.247 100.592 170.247 101.143V105.726Z" fill="black"/>
<path d="M170.8 107.252C171.079 105.859 171.605 104.323 171.576 103.631L171.169 103.655C170.928 103.671 170.699 103.769 170.52 103.933C170.341 104.096 170.223 104.316 170.185 104.555C170.038 105.461 169.816 106.844 169.712 107.399C169.619 108.107 169.46 108.805 169.239 109.484C169.2 109.582 169.128 109.663 169.035 109.712C168.833 109.831 168.651 109.982 168.496 110.157C168.344 110.29 168.226 110.318 168.24 110.366C168.263 110.418 168.305 110.46 168.358 110.483C168.411 110.506 168.47 110.508 168.524 110.489C168.645 110.451 168.761 110.399 168.87 110.333C168.773 110.541 168.642 110.732 168.482 110.897C168.122 111.276 168.089 111.522 168.756 111.579C169.172 111.612 169.523 111.38 169.906 110.489C170.052 110.162 170.176 109.824 170.275 109.48C170.53 108.593 170.691 107.802 170.8 107.252Z" fill="#FFA8A7"/>
<path d="M176.942 119.233C177.098 119.148 177.202 119.352 177.344 119.513C177.467 119.632 177.564 119.776 177.628 119.935C177.623 120.062 177.591 120.188 177.534 120.302C177.477 120.416 177.396 120.517 177.297 120.598C177.06 120.744 176.89 120.977 176.824 121.247C176.806 121.414 176.741 121.572 176.638 121.704C176.534 121.836 176.395 121.935 176.237 121.991C176.054 122.068 175.856 122.108 175.657 122.108C175.458 122.108 175.261 122.068 175.078 121.991C174.855 121.849 175.078 121.688 175.371 121.243C175.778 120.66 176.095 120.243 176.095 119.698L176.942 119.233Z" fill="#263238"/>
<path d="M176.616 118.731L176.947 119.205C177.018 119.306 177.046 119.432 177.026 119.554C177.005 119.676 176.938 119.786 176.838 119.859C176.737 119.92 176.617 119.944 176.501 119.926C176.384 119.908 176.277 119.849 176.199 119.759L175.679 119.186L176.616 118.731Z" fill="#FFA8A7"/>
<path d="M170.247 109.83C170.295 111.086 170.531 112.327 170.947 113.513C171.197 114.193 171.514 114.847 171.893 115.465C172.03 115.702 175.944 119.517 175.944 119.517C176.131 119.502 176.308 119.425 176.447 119.3C176.586 119.174 176.68 119.006 176.715 118.821C176.715 118.821 175.111 116.091 174.761 115.532C174.303 114.987 173.773 114.509 173.185 114.11L173.299 109.209L170.247 109.83Z" fill="#37474F"/>
<path d="M171.612 121.271L170.787 121.083L170.513 122.289L171.339 122.477L171.612 121.271Z" fill="#FFA8A7"/>
<path d="M170.947 109.148L174.467 109.285C174.707 109.807 174.81 110.381 174.766 110.953C174.647 112.674 173.019 115.75 173.019 115.75C173.095 116.446 173.06 117.15 172.915 117.835C172.545 119.089 172.109 120.323 171.609 121.532C171.45 121.556 171.286 121.545 171.131 121.5C170.976 121.455 170.832 121.377 170.71 121.271C170.71 121.271 171.24 116.555 171.382 115.347C171.538 114.039 171.936 111.65 171.936 111.65C171.672 111.389 171.435 111.104 171.226 110.797C170.857 110.329 170.667 109.744 170.691 109.148" fill="#37474F"/>
<path d="M175.811 108.219C175.692 107.004 175.496 105.798 175.225 104.607C175.192 104.411 175.097 104.231 174.952 104.095C174.807 103.959 174.622 103.874 174.425 103.854C173.275 104.475 173.284 105.299 174.264 106.295C174.264 106.295 174.671 107.897 174.799 108.664C174.932 109.366 174.996 110.078 174.988 110.792C174.982 110.897 174.936 110.995 174.86 111.067C174.703 111.242 174.572 111.438 174.472 111.65C174.368 111.821 174.259 111.882 174.288 111.925C174.325 111.969 174.377 111.998 174.434 112.005C174.491 112.012 174.549 111.997 174.595 111.963C174.7 111.892 174.796 111.807 174.879 111.712C174.847 111.938 174.778 112.157 174.676 112.361C174.439 112.835 174.477 113.077 175.149 112.939C175.556 112.854 175.825 112.527 175.934 111.56C175.982 111.204 176.004 110.844 176.001 110.484C175.925 109.579 175.868 108.778 175.811 108.219Z" fill="#FFA8A7"/>
<path d="M170.601 121.882L170.625 121.764C170.54 121.764 170.152 122.399 169.797 122.669C169.442 122.939 169.045 123.143 168.851 123.266C168.657 123.39 168.959 123.807 169.551 123.84C169.899 123.86 170.246 123.779 170.549 123.608C170.715 123.451 170.833 123.19 170.966 123.077C171.098 122.963 171.363 122.868 171.439 122.721C171.488 122.578 171.504 122.426 171.486 122.276C171.486 122.119 171.486 121.949 171.425 121.954V122.044C171.268 122.122 171.094 122.159 170.918 122.153C170.791 122.148 170.53 122.115 170.601 121.882Z" fill="#263238"/>
<path d="M171.486 114.546C171.486 114.546 171.841 112.039 171.936 111.65C171.653 111.495 171.39 111.307 171.15 111.091C171.314 111.325 171.493 111.548 171.685 111.759L171.486 114.546Z" fill="#263238"/>
<path d="M173.611 114.461C173.441 114.902 173.243 115.333 173.019 115.75C173.019 115.75 173.062 116.555 173.057 116.698L173.28 116.892C173.285 116.528 173.252 116.164 173.18 115.807C173.373 115.375 173.517 114.924 173.611 114.461Z" fill="#263238"/>
<path d="M173.185 103.65C173.601 103.697 174.015 103.765 174.425 103.854C173.28 104.66 174.264 106.295 174.264 106.295L173.654 107.987C174.064 108.525 174.397 109.119 174.642 109.75C174.321 110.119 172.409 111.238 170.228 109.83C170.228 109.83 170.355 108.598 170.535 107.669C170.223 106.162 170.133 105.631 170.228 105.276C170.483 104.28 171.07 103.645 171.742 103.607L173.185 103.65Z" fill="#F5F5F5"/>
<path d="M170.947 99.906C170.729 100.034 170.474 100.588 170.474 101.745C170.497 102.726 170.814 102.968 170.975 103.039C171.228 103.091 171.489 103.083 171.737 103.015V103.593C171.737 103.593 171.325 104.067 171.354 104.347C171.382 104.626 171.95 104.679 172.333 104.418C172.614 104.2 172.856 103.935 173.048 103.636V102.285C173.048 102.285 173.228 102.456 173.521 102.195C173.641 102.109 173.722 101.98 173.748 101.835C173.774 101.689 173.741 101.54 173.658 101.418C173.608 101.371 173.548 101.337 173.482 101.318C173.416 101.3 173.347 101.297 173.28 101.31C173.213 101.324 173.15 101.353 173.096 101.395C173.043 101.438 173 101.493 172.972 101.555C172.581 101.54 172.2 101.426 171.865 101.224C171.619 101.092 171.408 100.903 171.249 100.675C171.089 100.446 170.986 100.182 170.947 99.906Z" fill="#FFA8A7"/>
<path d="M171.576 101.498C171.576 101.531 171.589 101.562 171.612 101.586C171.635 101.609 171.667 101.622 171.699 101.622C171.732 101.622 171.763 101.609 171.786 101.586C171.809 101.562 171.822 101.531 171.822 101.498C171.824 101.482 171.822 101.465 171.816 101.449C171.811 101.433 171.803 101.418 171.792 101.405C171.781 101.392 171.767 101.382 171.752 101.374C171.737 101.367 171.721 101.362 171.704 101.361C171.686 101.361 171.669 101.365 171.653 101.372C171.637 101.379 171.622 101.389 171.61 101.402C171.598 101.415 171.589 101.43 171.583 101.447C171.577 101.463 171.575 101.481 171.576 101.498Z" fill="#263238"/>
<path d="M171.543 102.333L171.259 102.423C171.264 102.442 171.273 102.46 171.285 102.476C171.297 102.491 171.312 102.504 171.329 102.514C171.346 102.524 171.366 102.53 171.385 102.532C171.405 102.534 171.425 102.533 171.444 102.527C171.482 102.514 171.514 102.486 171.533 102.45C171.551 102.414 171.555 102.372 171.543 102.333Z" fill="#F28F8F"/>
<path d="M170.568 101.119L170.814 100.949C170.804 100.932 170.791 100.917 170.775 100.906C170.759 100.895 170.741 100.887 170.722 100.883C170.703 100.879 170.683 100.879 170.664 100.883C170.645 100.887 170.627 100.895 170.611 100.906C170.594 100.917 170.579 100.931 170.568 100.948C170.557 100.965 170.549 100.984 170.545 101.004C170.541 101.023 170.541 101.044 170.545 101.064C170.549 101.084 170.557 101.103 170.568 101.119Z" fill="#263238"/>
<path d="M170.625 101.408C170.624 101.425 170.626 101.442 170.631 101.458C170.636 101.474 170.645 101.489 170.656 101.502C170.667 101.514 170.68 101.525 170.695 101.533C170.71 101.54 170.727 101.545 170.743 101.546C170.776 101.546 170.808 101.533 170.832 101.51C170.856 101.487 170.87 101.456 170.871 101.423C170.871 101.406 170.868 101.39 170.862 101.375C170.856 101.36 170.847 101.347 170.835 101.335C170.824 101.324 170.81 101.315 170.795 101.309C170.78 101.303 170.764 101.299 170.748 101.299C170.732 101.299 170.716 101.303 170.701 101.309C170.686 101.315 170.673 101.324 170.661 101.335C170.65 101.347 170.641 101.36 170.634 101.375C170.628 101.39 170.625 101.406 170.625 101.423V101.408Z" fill="#263238"/>
<path d="M171.207 101.337L171.188 102.081L170.795 101.963L171.207 101.337Z" fill="#F28F8F"/>
<path d="M171.747 103.015C172.064 102.977 172.693 102.788 172.811 102.541C172.771 102.671 172.692 102.785 172.584 102.868C172.322 103.023 172.04 103.142 171.747 103.224V103.015Z" fill="#F28F8F"/>
<path d="M173.98 107.086L173.119 108.257L173.649 107.987L173.98 107.086Z" fill="#E0E0E0"/>
<path d="M132.661 127.409C132.873 126.23 132.934 125.029 132.841 123.835C132.839 123.807 132.828 123.78 132.809 123.759C132.791 123.738 132.766 123.723 132.739 123.716C132.711 123.71 132.683 123.713 132.657 123.724C132.631 123.735 132.609 123.754 132.595 123.778L131.682 125.475C131.682 125.475 131.573 126.717 131.459 127.565C131.376 128.338 131.217 129.102 130.986 129.845C130.945 129.95 130.868 130.038 130.768 130.091C130.549 130.219 130.35 130.379 130.177 130.565C130.016 130.712 129.883 130.74 129.902 130.792C129.927 130.85 129.972 130.897 130.029 130.922C130.086 130.948 130.151 130.95 130.21 130.93C130.341 130.89 130.467 130.832 130.584 130.759C130.48 130.985 130.339 131.191 130.167 131.371C129.775 131.783 129.742 132.048 130.461 132.11C130.91 132.148 131.294 131.897 131.71 130.925C131.87 130.57 132.004 130.204 132.112 129.83C132.391 128.864 132.543 128.001 132.661 127.409Z" fill="#B16668"/>
<path d="M136.934 140.868C136.934 140.868 136.991 140.868 137.166 140.977C137.365 141.102 137.538 141.262 137.677 141.451C137.696 141.589 137.685 141.729 137.646 141.862C137.607 141.995 137.54 142.118 137.45 142.224C137.272 142.492 137.178 142.807 137.18 143.129C137.165 143.337 137.106 143.539 137.009 143.722C136.911 143.906 136.776 144.067 136.612 144.195C136.319 144.399 135.959 144.608 135.794 144.556C135.628 144.503 135.619 144.3 135.827 143.399C136.001 142.806 136.124 142.198 136.196 141.584L136.934 140.868Z" fill="#263238"/>
<path d="M136.806 140.698L137 140.958C137.031 140.998 137.052 141.045 137.063 141.094C137.073 141.143 137.073 141.194 137.062 141.243C137.033 141.419 136.942 141.578 136.806 141.693C136.729 141.751 136.633 141.78 136.537 141.774C136.47 141.769 136.405 141.75 136.346 141.718C136.288 141.686 136.236 141.642 136.196 141.589L136.044 141.385L136.806 140.698Z" fill="#B16668"/>
<path d="M132.098 129.461L134.284 131.65H134.223L133.721 135.612C134.118 135.881 134.456 136.228 134.715 136.631C135.131 137.276 136.787 140.698 136.787 140.698C136.787 140.698 136.593 141.461 136.025 141.385C136.025 141.385 135.145 140.285 134.199 139.082C133.163 137.759 132.018 136.328 131.956 136.067C131.639 134.646 132.098 129.461 132.098 129.461Z" fill="#455A64"/>
<path d="M134.757 136.631C135.174 137.276 136.83 140.698 136.83 140.698C136.83 140.698 136.636 141.461 136.068 141.385C136.068 141.385 135.188 140.285 134.242 139.082L134.757 136.631Z" fill="#37474F"/>
<path d="M134.582 143.139C134.337 142.898 134.062 142.691 133.764 142.522C133.619 142.513 133.473 142.513 133.328 142.522C133.198 142.523 133.068 142.508 132.94 142.48C132.679 142.385 132.426 142.269 132.183 142.134C132.08 142.071 131.969 142.023 131.852 141.992C131.648 141.954 131.488 141.949 131.417 142.176C131.395 142.245 131.387 142.318 131.393 142.39C131.39 142.601 131.438 142.809 131.532 142.998C131.626 143.186 131.763 143.35 131.932 143.475C132.089 143.579 132.297 143.66 132.462 143.755C132.714 143.859 132.957 143.986 133.186 144.134C133.527 144.428 133.844 144.717 134.322 144.527C134.417 144.5 134.504 144.449 134.574 144.38C134.644 144.31 134.696 144.224 134.724 144.129C134.79 143.878 134.554 143.404 134.582 143.139Z" fill="#263238"/>
<path d="M132.122 129.119L136.806 129.593C136.934 130.948 136.817 132.314 136.461 133.627C136.082 135.328 135.661 137.115 135.661 137.115C135.863 137.772 135.878 138.473 135.704 139.138C135.339 140.328 134.663 143.489 134.663 143.489C134.447 143.034 134.069 142.677 133.603 142.489C133.603 142.489 133.773 140.826 133.877 139.622C133.981 138.418 134.043 137.413 134.081 136.669C134.142 135.484 134.313 131.631 134.313 131.631H134.251C134.251 131.631 132.41 130.759 132.107 129.442L132.122 129.119Z" fill="#455A64"/>
<path d="M134.284 131.65C133.755 131.404 133.263 131.085 132.822 130.702L133.962 131.769L133.754 135.338L134.284 131.65Z" fill="#37474F"/>
<path d="M133.839 123.314C133.144 123.314 132.311 123.536 131.98 124.176C131.684 124.989 131.486 125.834 131.388 126.693C131.388 126.693 131.648 127.257 132.623 127.191L133.839 123.314Z" fill="#263238"/>
<path d="M138.358 128.456C138.164 126.451 137.44 124.987 137.355 124.484L136.768 126.963C136.963 127.617 137.121 128.282 137.242 128.954C137.385 129.718 137.455 130.494 137.45 131.271C137.441 131.384 137.392 131.49 137.313 131.57C137.139 131.756 136.995 131.969 136.887 132.2C136.773 132.39 136.655 132.451 136.688 132.499C136.728 132.546 136.784 132.577 136.845 132.585C136.907 132.593 136.969 132.577 137.019 132.541C137.134 132.464 137.239 132.373 137.331 132.271C137.299 132.516 137.229 132.754 137.123 132.977C136.868 133.484 136.91 133.755 137.596 133.603C138.041 133.508 138.335 133.157 138.453 132.105C138.503 131.719 138.527 131.329 138.524 130.939C138.496 129.93 138.415 129.058 138.358 128.456Z" fill="#B16668"/>
<path d="M135.264 123.356C136.087 123.555 137.213 123.83 137.54 124.712C137.811 125.565 138.037 126.432 138.216 127.309C138.037 127.483 137.818 127.612 137.578 127.683C137.338 127.755 137.085 127.768 136.839 127.721L136.65 127.053L136.806 129.608C136.163 130.314 133.494 130.494 132.098 129.461C132.098 129.461 132.339 125.669 132.339 124.963C132.326 124.755 132.354 124.547 132.423 124.35C132.492 124.154 132.6 123.973 132.74 123.819C132.88 123.665 133.049 123.541 133.238 123.454C133.427 123.367 133.632 123.32 133.839 123.314L135.264 123.356Z" fill="#37474F"/>
<path d="M136.65 127.053L136.234 125.745L136.688 127.702L136.65 127.053Z" fill="#263238"/>
<path d="M135.571 119.679C135.645 119.671 135.72 119.679 135.791 119.704C135.861 119.728 135.925 119.768 135.978 119.821C136.153 120.001 136.115 120.333 135.978 121.091L135.439 121.153L135.571 119.679Z" fill="#263238"/>
<path d="M132.429 119.461C132.312 119.461 132.196 119.437 132.089 119.39C131.923 119.295 131.88 119.484 131.97 119.645C132.03 119.763 132.12 119.864 132.23 119.937C132.34 120.01 132.468 120.053 132.6 120.063L132.751 119.641L132.429 119.461Z" fill="#263238"/>
<path d="M135.32 121.153C135.401 121.2 135.514 121.048 135.614 120.944C135.652 120.899 135.702 120.865 135.757 120.844C135.813 120.824 135.873 120.818 135.931 120.828C135.99 120.837 136.045 120.862 136.091 120.899C136.137 120.936 136.173 120.984 136.196 121.039C136.357 121.385 135.983 121.845 135.765 121.987C135.705 122.039 135.629 122.071 135.549 122.078C135.469 122.085 135.389 122.066 135.32 122.025L135.264 123.347C135.166 123.558 135.017 123.742 134.832 123.883C134.646 124.023 134.429 124.116 134.199 124.153C133.423 124.262 133.584 123.622 133.839 123.304V122.83C133.647 122.872 133.448 122.882 133.253 122.859C133.028 122.696 132.854 122.472 132.751 122.214C132.42 121.559 132.347 120.802 132.548 120.096C132.822 118.911 134.095 118.873 134.852 119.352C135.609 119.83 135.32 121.153 135.32 121.153Z" fill="#B16668"/>
<path d="M135.32 121.29C135.358 121.29 135.51 121.034 135.614 120.944C135.718 120.854 135.571 119.679 135.571 119.679C135.61 119.557 135.618 119.427 135.595 119.302C135.572 119.176 135.518 119.058 135.439 118.958C135.164 118.674 134.639 118.721 134.251 118.707C133.777 118.71 133.306 118.617 132.869 118.432C132.32 118.19 132.278 118.162 132.212 118.404C132.158 118.603 132.151 118.812 132.191 119.014C132.231 119.216 132.318 119.406 132.443 119.57L132.623 119.863C132.828 119.986 133.061 120.054 133.3 120.063C133.807 120.059 134.31 119.982 134.795 119.835C134.942 119.835 134.975 119.958 135.055 120.356C135.136 120.754 135.183 121.285 135.32 121.29Z" fill="#263238"/>
<path d="M135.571 119.769L136.044 119.508C136.029 119.475 136.008 119.446 135.981 119.422C135.954 119.398 135.923 119.38 135.889 119.368C135.855 119.356 135.819 119.352 135.783 119.355C135.747 119.358 135.712 119.368 135.68 119.385C135.616 119.423 135.569 119.483 135.549 119.555C135.529 119.626 135.537 119.703 135.571 119.769Z" fill="#263238"/>
<path d="M133.839 122.835C134.17 122.771 134.495 122.678 134.809 122.555C134.956 122.479 135.077 122.36 135.155 122.214C135.117 122.36 135.051 122.497 134.961 122.617C134.776 122.854 133.839 123.025 133.839 123.025V122.835Z" fill="#9A4A4D"/>
<path d="M133.811 121.129C133.811 121.168 133.826 121.205 133.854 121.233C133.881 121.26 133.919 121.276 133.958 121.276C133.993 121.27 134.024 121.251 134.047 121.224C134.07 121.197 134.082 121.162 134.082 121.127C134.082 121.091 134.07 121.056 134.047 121.029C134.024 121.002 133.993 120.983 133.958 120.977C133.938 120.977 133.919 120.981 133.9 120.989C133.882 120.997 133.866 121.008 133.852 121.022C133.839 121.036 133.828 121.053 133.821 121.071C133.814 121.09 133.81 121.109 133.811 121.129Z" fill="#263238"/>
<path d="M133.972 120.584L134.279 120.754C134.3 120.711 134.304 120.662 134.29 120.616C134.276 120.571 134.245 120.532 134.204 120.508C134.184 120.497 134.162 120.49 134.139 120.488C134.116 120.485 134.093 120.488 134.071 120.495C134.049 120.502 134.029 120.514 134.012 120.529C133.995 120.544 133.981 120.563 133.972 120.584Z" fill="#263238"/>
<path d="M133.906 122.077L133.574 122.2C133.59 122.244 133.623 122.281 133.666 122.301C133.708 122.321 133.757 122.324 133.801 122.309C133.845 122.291 133.88 122.257 133.9 122.214C133.919 122.17 133.921 122.121 133.906 122.077Z" fill="#9A4A4D"/>
<path d="M132.533 120.702L132.817 120.489C132.804 120.47 132.787 120.453 132.767 120.441C132.748 120.428 132.726 120.42 132.702 120.417C132.679 120.413 132.656 120.414 132.633 120.42C132.611 120.426 132.59 120.437 132.571 120.451C132.534 120.48 132.509 120.522 132.502 120.569C132.495 120.616 132.506 120.664 132.533 120.702Z" fill="#263238"/>
<path d="M132.623 121.086C132.623 121.124 132.638 121.16 132.665 121.187C132.691 121.213 132.728 121.228 132.765 121.228C132.803 121.228 132.839 121.213 132.866 121.187C132.892 121.16 132.907 121.124 132.907 121.086C132.908 121.067 132.905 121.048 132.898 121.03C132.891 121.012 132.881 120.995 132.868 120.981C132.854 120.967 132.839 120.955 132.821 120.948C132.803 120.94 132.784 120.935 132.765 120.935C132.746 120.935 132.727 120.94 132.709 120.948C132.692 120.955 132.676 120.967 132.663 120.981C132.65 120.995 132.639 121.012 132.633 121.03C132.626 121.048 132.623 121.067 132.623 121.086Z" fill="#263238"/>
<path d="M133.3 121.067L133.432 121.925L132.959 121.868L133.3 121.067Z" fill="#9A4A4D"/>
<path d="M65.5723 119.513C64.9749 119.513 64.402 119.275 63.9796 118.852C63.5572 118.429 63.3199 117.855 63.3199 117.257V117.162C63.3199 116.659 63.5193 116.177 63.8743 115.822C64.2292 115.466 64.7107 115.266 65.2126 115.266H65.8988C66.4008 115.266 66.8822 115.466 67.2371 115.822C67.5921 116.177 67.7915 116.659 67.7915 117.162V117.257C67.7916 117.849 67.5588 118.418 67.1436 118.84C66.7283 119.263 66.1639 119.504 65.5723 119.513Z" fill="#263238"/>
<path d="M67.2426 124.138C66.9445 122.627 66.372 120.958 66.4003 120.205L66.8404 120.233C67.1033 120.25 67.3528 120.356 67.5479 120.533C67.743 120.711 67.8723 120.949 67.9146 121.209C68.0707 122.195 68.312 123.698 68.3877 124.314C68.4864 125.083 68.6558 125.841 68.8941 126.579C68.9347 126.685 69.0143 126.772 69.1165 126.821C69.3325 126.952 69.5298 127.111 69.7032 127.295C69.8641 127.442 69.9966 127.47 69.9777 127.522C69.9535 127.58 69.9082 127.626 69.851 127.652C69.7939 127.678 69.7292 127.68 69.6701 127.66C69.5394 127.617 69.414 127.56 69.2963 127.489C69.4002 127.715 69.5409 127.921 69.7127 128.1C70.1054 128.513 70.1385 128.778 69.4193 128.84C68.9461 128.878 68.5865 128.627 68.1701 127.655C68.0104 127.3 67.8759 126.934 67.7679 126.56C67.536 125.593 67.3609 124.736 67.2426 124.138Z" fill="#B16668"/>
<path d="M66.2158 120.181C66.6326 120.141 67.0528 120.208 67.4366 120.375C67.592 120.466 67.7221 120.594 67.8148 120.748C67.9075 120.902 67.9597 121.077 67.9666 121.257C68.0565 121.702 68.2032 122.873 68.2032 122.873C68.2032 122.873 67.9571 123.413 66.8641 123.191L66.2158 120.181Z" fill="#263238"/>
<path d="M63.0975 137.603C63.0975 137.603 63.0407 137.603 62.8656 137.712C62.6669 137.836 62.4934 137.997 62.3546 138.186C62.336 138.323 62.3466 138.463 62.3858 138.596C62.4249 138.73 62.4917 138.853 62.5817 138.958C62.7596 139.226 62.8535 139.542 62.8514 139.864C62.8666 140.071 62.925 140.273 63.0228 140.457C63.1206 140.641 63.2556 140.802 63.4193 140.93C63.7126 141.134 64.077 141.342 64.2379 141.29C64.3988 141.238 64.413 141.034 64.2047 140.134C64.031 139.54 63.9075 138.933 63.8357 138.319L63.0975 137.603Z" fill="#263238"/>
<path d="M63.2252 137.432L63.0312 137.693C63.0007 137.733 62.9793 137.779 62.9687 137.828C62.9581 137.877 62.9584 137.928 62.9697 137.977C62.9987 138.153 63.0893 138.313 63.2252 138.428C63.3027 138.486 63.3983 138.514 63.495 138.508C63.5616 138.503 63.6263 138.484 63.6851 138.452C63.7438 138.42 63.7951 138.376 63.8357 138.323L63.9871 138.12L63.2252 137.432Z" fill="#B16668"/>
<path d="M67.8246 126.271L66.6937 126.698L65.7473 128.385H65.8089L66.3104 132.347C65.9139 132.616 65.5758 132.963 65.3167 133.366C64.9003 134.01 63.2442 137.432 63.2442 137.432C63.2442 137.432 63.4382 138.195 64.006 138.12C64.006 138.12 64.8861 137.02 65.8325 135.816C66.6396 134.857 67.3886 133.851 68.0754 132.802C68.5108 131.266 67.8246 126.271 67.8246 126.271Z" fill="#FF9900"/>
<path d="M65.2978 133.366C64.8814 134.01 63.2252 137.432 63.2252 137.432C63.2252 137.432 63.4193 138.195 63.9871 138.12C63.9871 138.12 64.8672 137.02 65.8136 135.816L65.2978 133.366Z" fill="#FF9900"/>
<path d="M65.2978 133.366C64.8814 134.01 63.2252 137.432 63.2252 137.432C63.2252 137.432 63.4193 138.195 63.9871 138.12C63.9871 138.12 64.8672 137.02 65.8136 135.816L65.2978 133.366Z" fill="black"/>
<path d="M65.435 139.887C65.7073 139.681 66.0067 139.514 66.3246 139.39C66.4704 139.393 66.6158 139.406 66.76 139.428C66.8889 139.442 67.019 139.442 67.148 139.428C67.4206 139.369 67.688 139.288 67.9477 139.186C68.0585 139.136 68.1768 139.104 68.2978 139.091C68.5013 139.091 68.6622 139.091 68.7048 139.328C68.7167 139.4 68.7167 139.474 68.7048 139.546C68.6822 139.756 68.6099 139.958 68.4938 140.134C68.3778 140.311 68.2214 140.457 68.0376 140.56C67.872 140.641 67.6543 140.698 67.4792 140.764C67.2144 140.834 66.9563 140.928 66.7079 141.044C66.3341 141.285 65.9792 141.518 65.5344 141.281C65.4434 141.243 65.3637 141.181 65.3032 141.103C65.2427 141.025 65.2033 140.933 65.189 140.835C65.1275 140.56 65.4303 140.138 65.435 139.887Z" fill="#263238"/>
<path d="M67.6874 126.063L63.3057 126.342C62.9934 127.342 62.9981 128.238 63.3435 130.181C63.5928 131.432 63.9344 132.663 64.3656 133.864C64.166 134.524 64.1561 135.227 64.3372 135.892C64.6969 137.082 65.383 140.091 65.383 140.091C65.7016 139.794 66.0722 139.558 66.4761 139.394C66.4761 139.394 66.2631 137.579 66.159 136.375C66.0549 135.172 65.9934 134.167 65.9556 133.423C65.894 132.238 65.7237 128.385 65.7237 128.385H65.7852C65.7852 128.385 67.3893 127.797 67.678 126.489L67.6874 126.063Z" fill="#FF9900"/>
<path d="M65.7284 128.385C66.2571 128.138 66.7491 127.819 67.1906 127.437L66.0549 128.503L66.2584 132.072L65.7284 128.385Z" fill="black"/>
<path d="M61.8009 125.186C61.9638 123.85 62.2071 122.525 62.5297 121.219C62.5644 121.026 62.6582 120.848 62.798 120.711C62.9379 120.573 63.1169 120.482 63.3104 120.451C64.5549 121.124 64.5454 122.02 63.4855 123.096C63.4855 123.096 63.0407 124.84 62.9035 125.688C62.7592 126.452 62.6895 127.228 62.6953 128.006C62.704 128.118 62.7527 128.224 62.8325 128.304C63.0062 128.491 63.1499 128.704 63.2584 128.935C63.3719 129.124 63.4902 129.186 63.4571 129.233C63.4174 129.281 63.3612 129.312 63.2998 129.319C63.2384 129.327 63.1763 129.312 63.1259 129.276C63.0113 129.199 62.9064 129.108 62.8136 129.006C62.8508 129.25 62.9258 129.486 63.036 129.707C63.2915 130.214 63.2489 130.48 62.5628 130.333C62.118 130.238 61.8246 129.887 61.7063 128.835C61.6564 128.449 61.6327 128.059 61.6353 127.669C61.6637 126.664 61.7442 125.792 61.8009 125.186Z" fill="#B16668"/>
<path d="M64.6543 120.228L63.3104 120.451C64.5549 121.328 63.4855 123.096 63.4855 123.096L64.148 124.939C63.8193 125.382 63.5385 125.859 63.3104 126.361C63.7174 126.717 66.1496 127.555 67.8246 126.29C67.8246 126.29 67.73 125.622 67.5313 124.612C67.872 122.973 67.9666 122.394 67.8672 122.01C67.5881 120.93 66.9492 120.243 66.2205 120.2L64.6543 120.228Z" fill="#455A64"/>
<path d="M67.0912 116.162C67.3278 116.304 67.6212 116.901 67.5928 118.157C67.5691 119.224 67.2237 119.489 67.0486 119.579C66.7744 119.634 66.4912 119.626 66.2205 119.555V120.181C66.2205 120.181 66.6653 120.702 66.6369 120.996C66.6085 121.29 65.9934 121.361 65.5723 121.072C65.2674 120.837 65.0049 120.552 64.7962 120.228V118.759C64.7962 118.759 64.607 118.944 64.2805 118.664C64.1506 118.571 64.0625 118.43 64.035 118.273C64.0076 118.115 64.0431 117.953 64.1338 117.821C64.1884 117.773 64.2534 117.738 64.3237 117.719C64.394 117.7 64.4677 117.697 64.5392 117.711C64.6106 117.725 64.6778 117.756 64.7355 117.8C64.7932 117.845 64.8399 117.902 64.8719 117.968C65.2979 117.95 65.7127 117.827 66.0786 117.608C66.3494 117.464 66.5823 117.258 66.7583 117.007C66.9343 116.755 67.0484 116.466 67.0912 116.162Z" fill="#B16668"/>
<path d="M66.4003 117.892C66.4003 117.918 66.3927 117.943 66.3785 117.965C66.3643 117.986 66.3442 118.003 66.3205 118.013C66.2968 118.024 66.2707 118.027 66.2453 118.022C66.2199 118.018 66.1963 118.006 66.1775 117.989C66.1586 117.971 66.1453 117.948 66.1392 117.923C66.133 117.898 66.1343 117.872 66.1429 117.847C66.1515 117.823 66.167 117.802 66.1875 117.786C66.208 117.77 66.2327 117.761 66.2584 117.759C66.2764 117.759 66.2944 117.761 66.3113 117.768C66.3282 117.774 66.3437 117.784 66.3568 117.796C66.37 117.808 66.3807 117.823 66.3881 117.84C66.3956 117.856 66.3997 117.874 66.4003 117.892Z" fill="#263238"/>
<path d="M66.4382 118.797L66.7458 118.892C66.7403 118.913 66.7307 118.933 66.7174 118.95C66.7041 118.967 66.6874 118.982 66.6684 118.992C66.6494 119.003 66.6284 119.01 66.6067 119.012C66.585 119.014 66.5631 119.012 66.5423 119.006C66.5011 118.992 66.467 118.962 66.4475 118.923C66.428 118.884 66.4247 118.839 66.4382 118.797Z" fill="#9A4A4D"/>
<path d="M67.4981 117.48L67.2284 117.295C67.239 117.276 67.2534 117.26 67.2707 117.247C67.288 117.234 67.3079 117.225 67.3289 117.221C67.35 117.216 67.3717 117.216 67.3927 117.221C67.4138 117.225 67.4336 117.234 67.4508 117.247C67.4872 117.272 67.5125 117.311 67.5213 117.354C67.5301 117.397 67.5218 117.442 67.4981 117.48Z" fill="#263238"/>
<path d="M67.4366 117.811C67.4404 117.831 67.4397 117.852 67.4346 117.871C67.4296 117.891 67.4203 117.909 67.4074 117.924C67.3945 117.94 67.3784 117.953 67.3601 117.961C67.3419 117.97 67.3219 117.974 67.3018 117.974C67.2816 117.974 67.2617 117.97 67.2434 117.961C67.2252 117.953 67.209 117.94 67.1962 117.924C67.1833 117.909 67.174 117.891 67.1689 117.871C67.1639 117.852 67.1632 117.831 67.1669 117.811C67.1656 117.794 67.168 117.776 67.1737 117.759C67.1795 117.742 67.1887 117.726 67.2006 117.713C67.2125 117.7 67.227 117.689 67.2432 117.681C67.2593 117.674 67.2768 117.67 67.2947 117.669C67.3135 117.668 67.3323 117.672 67.3498 117.679C67.3673 117.686 67.3832 117.696 67.3965 117.709C67.4098 117.723 67.4203 117.739 67.4272 117.756C67.4341 117.774 67.4373 117.792 67.4366 117.811Z" fill="#263238"/>
<path d="M66.8026 117.717L66.8262 118.522L67.2474 118.394L66.8026 117.717Z" fill="#9A4A4D"/>
<path d="M66.2158 119.541C65.8704 119.494 65.1701 119.29 65.0612 119.015C65.1032 119.157 65.1894 119.281 65.3073 119.371C65.5916 119.539 65.8972 119.668 66.2158 119.754V119.541Z" fill="#9A4A4D"/>
<path d="M63.7931 123.958L64.73 125.228L64.148 124.939L63.7931 123.958Z" fill="#263238"/>
<path d="M64.0959 115.034C64.2735 115.135 64.416 115.288 64.5042 115.472C64.5923 115.657 64.6219 115.864 64.5889 116.066C64.5559 116.267 64.4619 116.454 64.3196 116.601C64.1773 116.748 63.9936 116.847 63.7931 116.886C63.5926 116.925 63.3851 116.901 63.1985 116.818C63.0119 116.735 62.8551 116.597 62.7494 116.422C62.6437 116.247 62.5941 116.044 62.6072 115.84C62.6204 115.636 62.6957 115.44 62.823 115.281C62.964 115.085 63.1742 114.95 63.4107 114.905C63.6472 114.859 63.8923 114.905 64.0959 115.034Z" fill="#263238"/>
<path d="M63.3057 120.451C63.1117 120.499 62.6148 120.451 62.3593 121.437C62.1038 122.423 61.9429 123.371 61.9429 123.371C62.1152 123.568 62.3411 123.711 62.593 123.783C62.845 123.854 63.1123 123.851 63.3625 123.773C63.3625 123.773 63.6842 122.788 63.8924 122.138C64.1007 121.489 63.9871 120.688 63.3057 120.451Z" fill="#263238"/>
<path d="M30.6083 104.314C30.4103 103.21 30.353 102.086 30.4379 100.968C30.4391 100.94 30.4491 100.915 30.4664 100.894C30.4838 100.873 30.5075 100.858 30.5339 100.852C30.5603 100.847 30.5879 100.85 30.6125 100.861C30.6371 100.872 30.6572 100.891 30.6698 100.915L31.5263 102.503C31.5263 102.503 31.6256 103.669 31.7345 104.465C31.8094 105.189 31.9568 105.904 32.1745 106.598C32.2125 106.697 32.2847 106.78 32.378 106.83C32.5842 106.951 32.7709 107.103 32.9316 107.28C33.0831 107.418 33.2061 107.446 33.1919 107.494C33.1679 107.547 33.1252 107.589 33.072 107.613C33.0187 107.637 32.9587 107.64 32.9032 107.622C32.7793 107.583 32.6603 107.531 32.5484 107.465C32.6484 107.674 32.7809 107.866 32.9411 108.034C33.3102 108.423 33.3433 108.674 32.6667 108.731C32.2408 108.769 31.8859 108.532 31.4931 107.622C31.3449 107.287 31.2184 106.944 31.1146 106.593C30.8827 105.679 30.7218 104.873 30.6083 104.314Z" fill="#FFA8A7"/>
<path d="M29.5057 100.479C30.154 100.479 30.9253 100.688 31.2471 101.285C31.5236 102.051 31.7094 102.846 31.8007 103.655C31.8007 103.655 31.5547 104.186 30.6461 104.129L29.5057 100.479Z" fill="#FF9900"/>
<path d="M29.5057 100.479C30.154 100.479 30.9253 100.688 31.2471 101.285C31.5236 102.051 31.7094 102.846 31.8007 103.655C31.8007 103.655 31.5547 104.186 30.6461 104.129L29.5057 100.479Z" fill="black"/>
<path d="M24.3243 116.48C24.1634 116.399 24.0593 116.603 23.9126 116.769C23.7853 116.888 23.688 117.036 23.6287 117.2C23.6321 117.329 23.6634 117.457 23.7206 117.573C23.7778 117.689 23.8594 117.791 23.96 117.873C24.0783 117.946 24.181 118.042 24.2622 118.155C24.3434 118.268 24.4015 118.396 24.4332 118.532C24.4503 118.702 24.516 118.865 24.6225 118.999C24.7291 119.134 24.8719 119.235 25.0341 119.29C25.2199 119.368 25.4194 119.408 25.6209 119.408C25.8223 119.408 26.0218 119.368 26.2076 119.29C26.4347 119.143 26.2076 118.982 25.9095 118.527C25.4978 117.935 25.1761 117.508 25.1761 116.953L24.3243 116.48Z" fill="#263238"/>
<path d="M24.6556 115.996L24.3149 116.494C24.2785 116.545 24.2527 116.602 24.2387 116.663C24.2248 116.724 24.223 116.788 24.2336 116.849C24.2441 116.911 24.2668 116.97 24.3002 117.023C24.3337 117.076 24.3772 117.121 24.4284 117.157C24.5315 117.219 24.6529 117.242 24.7715 117.223C24.89 117.204 24.9981 117.144 25.0767 117.053L25.6114 116.475L24.6556 115.996Z" fill="#FFA8A7"/>
<path d="M30.9111 106.238C30.9111 106.878 30.7502 109.451 30.3102 110.589C29.8701 111.726 29.6193 112.437 29.4821 112.674C29.3449 112.911 25.3606 116.797 25.3606 116.797C25.1708 116.781 24.9914 116.703 24.8496 116.576C24.7079 116.448 24.6115 116.278 24.5751 116.091C24.5751 116.091 26.2076 113.309 26.5625 112.74C27.0286 112.187 27.5683 111.701 28.1666 111.295L28.0531 106.314L30.9111 106.238Z" fill="#37474F"/>
<path d="M30.0359 119.809L30.8758 119.618L30.5976 118.388L29.7577 118.579L30.0359 119.809Z" fill="#FFA8A7"/>
<path d="M30.9111 106.238H26.8701C26.7833 106.83 26.7328 107.426 26.7187 108.025C26.6855 109.778 28.318 112.963 28.318 112.963C28.2371 113.672 28.2722 114.389 28.4221 115.086C28.7984 116.363 29.2422 117.619 29.7518 118.849C29.9141 118.873 30.0798 118.862 30.2374 118.816C30.395 118.771 30.5409 118.691 30.6651 118.584C30.6651 118.584 30.1256 113.783 29.9789 112.551C29.8228 111.219 29.4206 108.788 29.4206 108.788C29.6872 108.521 29.9294 108.23 30.1445 107.92C30.5184 107.421 30.7799 106.847 30.9111 106.238Z" fill="#37474F"/>
<path d="M25.266 105.295C25.4505 103.423 26.1272 102.048 26.2123 101.574L26.766 103.897C26.5731 104.511 26.4151 105.136 26.2928 105.769C26.1562 106.484 26.0897 107.211 26.094 107.939C26.1033 108.044 26.1504 108.142 26.2265 108.214C26.3923 108.389 26.5296 108.589 26.6335 108.807C26.7423 108.982 26.8512 109.043 26.8228 109.081C26.7857 109.127 26.7329 109.156 26.675 109.164C26.6171 109.172 26.5583 109.158 26.5105 109.124C26.4034 109.05 26.3049 108.964 26.2171 108.868C26.2506 109.098 26.3209 109.32 26.4253 109.527C26.6666 110.001 26.6288 110.257 25.9521 110.115C25.5357 110.025 25.2612 109.698 25.1524 108.693C25.1043 108.33 25.0821 107.964 25.0862 107.598C25.1382 106.683 25.2139 105.863 25.266 105.295Z" fill="#FFA8A7"/>
<path d="M28.1714 100.517C27.3953 100.707 26.3401 100.949 26.0325 101.788C25.7806 102.588 25.5689 103.401 25.3985 104.224C25.5679 104.386 25.7733 104.506 25.9978 104.573C26.2223 104.641 26.4596 104.654 26.6903 104.612L26.8701 103.982L26.8701 106.238C27.4758 106.901 29.5862 107.209 30.9111 106.238V102.024C30.924 101.829 30.897 101.632 30.8317 101.447C30.7665 101.262 30.6645 101.092 30.5317 100.947C30.399 100.803 30.2384 100.687 30.0596 100.607C29.8808 100.526 29.6875 100.483 29.4915 100.479L28.1714 100.517Z" fill="#FF9900"/>
<path d="M26.8701 103.982L27.2581 102.759L26.8701 104.532V103.982Z" fill="black"/>
<path d="M31.0531 97.6832C31.0559 97.9238 30.9872 98.1597 30.8559 98.3611C30.7245 98.5625 30.5363 98.7202 30.3152 98.8142C30.0941 98.9082 29.8501 98.9343 29.6142 98.8891C29.3783 98.8439 29.1611 98.7295 28.9903 98.5604C28.8195 98.3913 28.7027 98.1751 28.6548 97.9394C28.6069 97.7037 28.63 97.459 28.7213 97.2365C28.8125 97.0139 28.9678 96.8236 29.1673 96.6897C29.3668 96.5557 29.6015 96.4842 29.8417 96.4841C30.1605 96.4841 30.4665 96.61 30.6933 96.8345C30.9201 97.0589 31.0493 97.3639 31.0531 97.6832Z" fill="#263238"/>
<path d="M27.878 97.0718C27.809 97.0648 27.7394 97.0731 27.674 97.096C27.6086 97.1189 27.549 97.156 27.4994 97.2045C27.3338 97.3751 27.3717 97.6785 27.4994 98.3941L28.0057 98.4557L27.878 97.0718Z" fill="#263238"/>
<path d="M28.1146 98.4557C28.0436 98.4984 27.9348 98.3562 27.8401 98.2567C27.8035 98.2155 27.7571 98.1844 27.7052 98.166C27.6533 98.1477 27.5976 98.1428 27.5433 98.1518C27.489 98.1608 27.4379 98.1833 27.3946 98.2174C27.3514 98.2515 27.3174 98.296 27.296 98.3467C27.1445 98.669 27.49 99.1003 27.6982 99.2425C27.7543 99.2928 27.8251 99.3237 27.9001 99.3305C27.9751 99.3373 28.0503 99.3197 28.1146 99.2804L28.1714 100.517C28.262 100.716 28.4 100.889 28.5734 101.021C28.7467 101.153 28.9499 101.241 29.165 101.276C29.8938 101.375 29.7423 100.773 29.5057 100.479V100.029C29.6876 100.068 29.8745 100.078 30.0594 100.058C30.2698 99.9028 30.4335 99.693 30.5326 99.451C30.8419 98.8364 30.9111 98.1282 30.7266 97.4652C30.4663 96.3562 29.2739 96.323 28.5641 96.7685C27.8543 97.214 28.1146 98.4557 28.1146 98.4557Z" fill="#FFA8A7"/>
<path d="M28.1146 98.5789C28.0814 98.5789 27.9348 98.342 27.8401 98.2567C27.7455 98.1714 27.878 97.0718 27.878 97.0718C27.8431 96.9577 27.8365 96.8368 27.8587 96.7195C27.881 96.6022 27.9315 96.4922 28.0057 96.3988C28.2613 96.1287 28.7581 96.1761 29.1177 96.1619C29.6605 96.1342 30.2046 96.1469 30.7455 96.1998C30.8368 96.1975 30.9253 96.2316 30.9916 96.2946C31.0137 96.3312 31.0276 96.3722 31.0325 96.4147C31.0374 96.4572 31.0331 96.5003 31.02 96.541C30.9697 96.779 30.8439 96.9944 30.6614 97.155C30.4789 97.3156 30.2495 97.4127 30.0073 97.432C29.5263 97.4304 29.0481 97.3585 28.5878 97.2187C28.4505 97.2187 28.4221 97.3325 28.3464 97.6927C28.2707 98.0529 28.2423 98.5789 28.1146 98.5789Z" fill="#263238"/>
<path d="M27.8827 97.1524L27.4095 96.9107C27.4241 96.8805 27.4446 96.8536 27.4697 96.8315C27.4949 96.8093 27.5242 96.7925 27.5559 96.7819C27.5877 96.7713 27.6212 96.7671 27.6546 96.7697C27.688 96.7723 27.7205 96.7816 27.7502 96.7969C27.8145 96.8269 27.8645 96.8809 27.8893 96.9474C27.914 97.014 27.9117 97.0876 27.8827 97.1524Z" fill="#263238"/>
<path d="M29.501 100.029C29.1926 99.9696 28.8901 99.8824 28.5972 99.7685C28.4578 99.6975 28.3437 99.5849 28.2707 99.4463C28.3055 99.584 28.3684 99.7131 28.4553 99.8254C28.6256 100.048 29.501 100.209 29.501 100.209V100.029Z" fill="#F28F8F"/>
<path d="M29.5247 98.4273C29.5284 98.4471 29.5277 98.4676 29.5227 98.4871C29.5176 98.5067 29.5083 98.5249 29.4954 98.5404C29.4826 98.556 29.4664 98.5685 29.4482 98.5771C29.4299 98.5857 29.41 98.5901 29.3898 98.5901C29.3696 98.5901 29.3497 98.5857 29.3315 98.5771C29.3132 98.5685 29.2971 98.556 29.2842 98.5404C29.2713 98.5249 29.262 98.5067 29.257 98.4871C29.2519 98.4676 29.2512 98.4471 29.255 98.4273C29.2512 98.4074 29.2519 98.387 29.257 98.3674C29.262 98.3479 29.2713 98.3297 29.2842 98.3141C29.2971 98.2986 29.3132 98.2861 29.3315 98.2775C29.3497 98.2689 29.3696 98.2644 29.3898 98.2644C29.41 98.2644 29.4299 98.2689 29.4482 98.2775C29.4664 98.2861 29.4826 98.2986 29.4954 98.3141C29.5083 98.3297 29.5176 98.3479 29.5227 98.3674C29.5277 98.387 29.5284 98.4074 29.5247 98.4273Z" fill="#263238"/>
<path d="M29.3827 97.906L29.0941 98.0671C29.0733 98.0273 29.0686 97.9809 29.0809 97.9377C29.0932 97.8945 29.1217 97.8577 29.1603 97.8349C29.1795 97.8243 29.2005 97.8178 29.2223 97.8157C29.244 97.8136 29.266 97.8159 29.2868 97.8226C29.3076 97.8292 29.3268 97.84 29.3433 97.8544C29.3598 97.8687 29.3732 97.8863 29.3827 97.906Z" fill="#263238"/>
<path d="M29.4442 99.3278L29.7518 99.4415C29.7449 99.4625 29.7338 99.4819 29.7193 99.4986C29.7048 99.5153 29.6871 99.5289 29.6673 99.5386C29.6474 99.5483 29.6258 99.5539 29.6038 99.5552C29.5817 99.5564 29.5597 99.5532 29.5389 99.5458C29.5182 99.5379 29.4993 99.526 29.4832 99.5107C29.4672 99.4954 29.4544 99.4771 29.4456 99.4568C29.4368 99.4365 29.4321 99.4146 29.4319 99.3924C29.4316 99.3703 29.4358 99.3483 29.4442 99.3278Z" fill="#F28F8F"/>
<path d="M30.7266 98.0339L30.4616 97.8301C30.4739 97.8118 30.4897 97.7962 30.5083 97.7843C30.5268 97.7724 30.5476 97.7644 30.5693 97.7608C30.591 97.7573 30.6133 97.7582 30.6346 97.7636C30.656 97.769 30.676 97.7788 30.6935 97.7922C30.7273 97.8216 30.7494 97.8623 30.7555 97.9068C30.7616 97.9513 30.7513 97.9965 30.7266 98.0339Z" fill="#263238"/>
<path d="M30.6556 98.3799C30.6593 98.3998 30.6586 98.4202 30.6536 98.4397C30.6485 98.4593 30.6392 98.4775 30.6264 98.4931C30.6135 98.5086 30.5973 98.5211 30.5791 98.5297C30.5608 98.5383 30.5409 98.5427 30.5207 98.5427C30.5006 98.5427 30.4806 98.5383 30.4624 98.5297C30.4441 98.5211 30.428 98.5086 30.4151 98.4931C30.4022 98.4775 30.3929 98.4593 30.3879 98.4397C30.3828 98.4202 30.3822 98.3998 30.3859 98.3799C30.3822 98.36 30.3828 98.3396 30.3879 98.32C30.3929 98.3005 30.4022 98.2823 30.4151 98.2667C30.428 98.2512 30.4441 98.2387 30.4624 98.2301C30.4806 98.2215 30.5006 98.217 30.5207 98.217C30.5409 98.217 30.5608 98.2215 30.5791 98.2301C30.5973 98.2387 30.6135 98.2512 30.6264 98.2667C30.6392 98.2823 30.6485 98.3005 30.6536 98.32C30.6586 98.3396 30.6593 98.36 30.6556 98.3799Z" fill="#263238"/>
<path d="M30.0121 98.3751L29.8843 99.1761L30.3291 99.124L30.0121 98.3751Z" fill="#F28F8F"/>
<path d="M30.7786 119.205L30.7502 119.081C30.8401 119.081 31.2234 119.726 31.5925 120.001C31.9616 120.276 32.3591 120.475 32.5389 120.612C32.7187 120.75 32.4301 121.162 31.8244 121.195C31.471 121.216 31.1192 121.134 30.8118 120.958C30.6414 120.802 30.5184 120.536 30.3859 120.418C30.2534 120.299 29.9837 120.205 29.9127 120.058C29.8553 119.907 29.8374 119.744 29.8606 119.584C29.8606 119.427 29.8606 119.252 29.9222 119.257V119.347C30.0803 119.427 30.256 119.466 30.4332 119.461C30.5846 119.475 30.8496 119.442 30.7786 119.205Z" fill="#263238"/>
<path d="M29.8748 111.735C29.8748 111.735 29.5152 109.186 29.4016 108.788C29.6896 108.632 29.9567 108.441 30.1966 108.219C30.0301 108.458 29.8483 108.686 29.6524 108.901L29.8748 111.735Z" fill="#263238"/>
<path d="M27.7124 111.65C27.8863 112.1 28.0886 112.539 28.318 112.963C28.318 112.963 28.2707 113.783 28.2802 113.949L28.0531 114.143C28.0475 113.772 28.0808 113.402 28.1524 113.039C27.9562 112.593 27.8087 112.128 27.7124 111.65Z" fill="#263238"/>
</svg>
