<svg width="52" height="31" viewBox="0 0 52 31" fill="none" xmlns="http://www.w3.org/2000/svg">
<path d="M3.96635 22.0698L4.37647 21.1578L4.37647 21.1578L3.96635 22.0698ZM0.645236 19.8011C0.128907 19.9971 -0.130766 20.5746 0.0652471 21.0909L3.25944 29.505C3.45546 30.0213 4.03292 30.281 4.54925 30.085C5.06559 29.889 5.32525 29.3115 5.12925 28.7952L2.28996 21.316L9.76916 18.4767C10.2855 18.2807 10.5452 17.7032 10.3492 17.1869C10.1531 16.6705 9.57567 16.4109 9.05934 16.6069L0.645236 19.8011ZM3.96635 22.0698L4.37647 21.1578L1.41026 19.824L1.00015 20.736L0.590035 21.648L3.55624 22.9818L3.96635 22.0698ZM50.6016 0.917842L49.6453 0.625579C43.815 19.7031 22.5702 29.339 4.37647 21.1578L3.96635 22.0698L3.55624 22.9818C22.8483 31.6569 45.3757 21.4394 51.5579 1.2101L50.6016 0.917842Z" fill="#E6E6E6"/>
</svg>
